<svg width="121" height="87" viewBox="0 0 121 87" fill="none" xmlns="http://www.w3.org/2000/svg">
<path fill-rule="evenodd" clip-rule="evenodd" d="M43.1328 37.4016H17.6614L43.1328 65.7031V37.4016Z" fill="#060D26"/>
<path fill-rule="evenodd" clip-rule="evenodd" d="M77.8672 65.7031V37.4016H103.339L77.8672 65.7031Z" fill="#060D26"/>
<path d="M119 20H77.8672H60.5L77.8672 28.7008V37.4016H103.339L119 20Z" fill="#CDC9C9"/>
<path d="M2 20L17.6614 37.4016H43.1328V28.7008L60.5 20H43.1328H2Z" fill="#CDC9C9"/>
<path d="M119 20L103.339 2H60.5H17.6614L2 20H43.1328H60.5H77.8672H119Z" fill="white"/>
<path d="M60.5 20V75.3516V85L64.8418 80.1758L69.1836 75.3516L77.8672 65.7031V37.4016V28.7008L60.5 20Z" fill="white"/>
<path d="M60.5 75.3516V20L43.1328 28.7008V37.4016V65.7031L51.8164 75.3516L60.5 85V75.3516Z" fill="white"/>
<path d="M60.5 85V20M60.5 85L51.8164 75.3516L43.1328 65.7031M60.5 85V75.3516V20M60.5 85L64.8418 80.1758L69.1836 75.3516L77.8672 65.7031M119 20L103.339 2H60.5H17.6614L2 20M119 20H77.8672H60.5M119 20L103.339 37.4016M60.5 20L43.1328 28.7008V37.4016M60.5 20L77.8672 28.7008V37.4016M60.5 20H43.1328H2M2 20L17.6614 37.4016M17.6614 37.4016L43.1328 65.7031M17.6614 37.4016H43.1328M43.1328 65.7031V37.4016M77.8672 65.7031V37.4016M77.8672 65.7031L103.339 37.4016M77.8672 37.4016H103.339" stroke="#060D26" stroke-width="2.5"/>
</svg>
