<svg width="124" height="124" viewBox="0 0 124 124" fill="none" xmlns="http://www.w3.org/2000/svg">
<path d="M20.6667 0C15.1855 0 9.92888 2.17737 6.05313 6.05313C2.17737 9.92888 0 15.1855 0 20.6667L0 37.2C0 85.1384 38.8616 124 86.8 124H103.333C108.814 124 114.071 121.823 117.947 117.947C121.823 114.071 124 108.814 124 103.333V91.9088C124 89.6048 123.358 87.3463 122.146 85.3867C120.934 83.4272 119.2 81.8441 117.139 80.8149L97.1747 70.8288C95.5852 70.0342 93.8435 69.5905 92.0676 69.5277C90.2917 69.465 88.5231 69.7846 86.8815 70.4651C85.24 71.1456 83.7638 72.1709 82.5531 73.4717C81.3424 74.7724 80.4254 76.3182 79.8643 78.0043L77.4008 85.3864C76.9474 86.7411 76.0155 87.884 74.7798 88.6008C73.5441 89.3176 72.0893 89.5591 70.6883 89.28C61.8133 87.5048 53.6622 83.1429 47.2616 76.7438C40.861 70.3447 36.4973 62.1945 34.72 53.32C34.4409 51.9189 34.6824 50.4642 35.3992 49.2285C36.116 47.9927 37.2589 47.0608 38.6136 46.6075L47.7813 43.5488C50.744 42.5595 53.2242 40.4884 54.7262 37.7497C56.2281 35.011 56.6411 31.8063 55.8827 28.7763L51.0384 9.3992C50.3694 6.71681 48.8232 4.33493 46.6454 2.63196C44.4676 0.928985 41.7832 0.00260705 39.0187 0L20.6667 0Z" fill="white"/>
</svg>
