<svg width="29" height="29" viewBox="0 0 29 29" fill="none" xmlns="http://www.w3.org/2000/svg">
<path d="M1.66782 6.63132V22.1687H8.67769V6.63132H1.66782ZM6.76125 20.8716C6.63888 20.8716 6.51925 20.8353 6.41749 20.7673C6.31574 20.6993 6.23643 20.6027 6.1896 20.4896C6.14277 20.3765 6.13052 20.2521 6.15439 20.1321C6.17827 20.0121 6.2372 19.9018 6.32373 19.8153C6.41026 19.7288 6.52052 19.6698 6.64054 19.646C6.76057 19.6221 6.88498 19.6343 6.99804 19.6812C7.1111 19.728 7.20774 19.8073 7.27572 19.9091C7.34371 20.0108 7.38 20.1304 7.38 20.2528C7.38 20.4169 7.31481 20.5743 7.19878 20.6903C7.08274 20.8064 6.92536 20.8716 6.76125 20.8716ZM7.77375 10.2313H2.56275V9.33132H7.77319V10.2313H7.77375ZM7.77375 8.43132H2.56275V7.53132H7.77319V8.43132H7.77375ZM16.38 19.035H20.4919V21.2687H22.8398V22.1687H14.0333V21.2687H16.3811V19.035H16.38ZM9.7425 6.63132V18.135H27.1322V6.63132H9.74194H9.7425ZM26.2322 17.235H10.6419V7.53132H26.2322V17.235Z" fill="black"/>
</svg>
