<svg width="50" height="50" viewBox="0 0 50 50" fill="none" xmlns="http://www.w3.org/2000/svg">
<rect width="50" height="50" rx="25" fill="black" fill-opacity="0.21"/>
<path d="M16.7156 14.1125C16.7152 14.9376 16.361 15.7287 15.731 16.3118C15.1009 16.8949 14.2467 17.2223 13.3561 17.2219C12.4656 17.2215 11.6117 16.8933 10.9823 16.3096C10.3529 15.7259 9.99956 14.9345 10 14.1094C10.0004 13.2843 10.3546 12.4932 10.9847 11.9101C11.6147 11.327 12.4689 10.9996 13.3595 11C14.25 11.0004 15.1039 11.3286 15.7333 11.9123C16.3627 12.496 16.7161 13.2874 16.7156 14.1125ZM16.8164 19.5255H10.1007V39H16.8164V19.5255ZM27.4271 19.5255H20.745V39H27.3599V28.7806C27.3599 23.0876 35.3683 22.5587 35.3683 28.7806V39H42V26.6651C42 17.0679 30.1469 17.4256 27.3599 22.1387L27.4271 19.5255Z" fill="white"/>
</svg>
