<svg width="394" height="75" viewBox="0 0 394 75" fill="none" xmlns="http://www.w3.org/2000/svg">
<g clip-path="url(#clip0_179_2)">
<path d="M64.8956 3.5625H9.10284L-0.426758 13.11L37.0029 71.4375L74.4326 13.11L64.8956 3.5625Z" fill="#08227F"/>
<path d="M37.8936 15.5098V66.7573L44.7058 56.1298V22.3423L37.8936 15.5098Z" fill="white"/>
<path d="M34.8546 14.25H2.41797L7.18651 21.675H27.4435L34.8546 14.25Z" fill="white"/>
<path d="M39.1514 14.25L46.5624 21.675H66.8194L71.5879 14.25H39.1514Z" fill="white"/>
<path d="M64.1617 5.33984H9.84374L2.72461 12.4723H71.2734L64.1617 5.33984Z" fill="white"/>
<path d="M36.1127 15.5098L29.293 22.3423V56.1298L36.1127 66.7573V15.5098Z" fill="white"/>
<path d="M94.9516 14.7236V37.4636C94.9516 37.9211 95.0564 38.2586 95.2585 38.4986C95.4606 38.7386 95.8274 38.9261 96.3515 39.0686V39.7736H87.009V39.0686C87.533 38.9186 87.8998 38.7311 88.102 38.4986C88.3041 38.2661 88.4089 37.9211 88.4089 37.4636V14.7236H79.1113C78.6697 14.7236 78.3328 14.8211 78.1007 15.0236C77.8687 15.2261 77.674 15.5936 77.5318 16.1261H76.8281V8.37109H77.5318C77.689 8.90359 77.8836 9.27109 78.1157 9.47359C78.3478 9.67609 78.6772 9.77359 79.1113 9.77359H104.219C104.676 9.77359 105.013 9.67609 105.252 9.47359C105.492 9.27109 105.679 8.90359 105.821 8.37109H106.525V16.1261H105.821C105.671 15.5936 105.484 15.2186 105.252 15.0236C105.02 14.8211 104.676 14.7236 104.219 14.7236H94.9516Z" fill="white"/>
<path d="M121.272 26.6108V34.8308H140.526C140.968 34.8308 141.304 34.7258 141.536 34.5233C141.769 34.3208 141.963 33.9533 142.105 33.4283H142.809V41.1758H142.105C141.956 40.6508 141.769 40.2833 141.536 40.0808C141.304 39.8783 140.968 39.7733 140.526 39.7733H113.337V39.0683C113.861 38.9183 114.228 38.7308 114.43 38.4983C114.632 38.2658 114.737 37.9208 114.737 37.4633V12.0833C114.737 11.6333 114.632 11.2883 114.43 11.0483C114.228 10.8158 113.861 10.6208 113.337 10.4783V9.77328H140.002C140.444 9.77328 140.78 9.66828 141.012 9.45828C141.244 9.24828 141.439 8.88828 141.581 8.36328H142.285V16.1258H141.581C141.432 15.6083 141.244 15.2408 141.012 15.0308C140.78 14.8208 140.444 14.7158 140.002 14.7158H121.272V21.8333H133.422C133.863 21.8333 134.2 21.7283 134.432 21.5258C134.664 21.3233 134.859 20.9558 135.001 20.4308H135.705V28.0133H135.001C134.852 27.5033 134.664 27.1358 134.432 26.9258C134.2 26.7158 133.863 26.6108 133.422 26.6108H121.272Z" fill="white"/>
<path d="M180.292 29.468L184.461 35.7155L183.893 36.113C183.481 35.7305 183.144 35.543 182.882 35.543C182.62 35.543 181.879 35.8955 180.666 36.6005C178.151 38.0555 176.032 39.038 174.318 39.5405C172.604 40.043 170.56 40.298 168.187 40.298C163.463 40.298 159.593 39.1805 156.561 36.938C154.78 35.633 153.372 34.013 152.354 32.0855C151.171 29.873 150.58 27.4355 150.58 24.7655C150.58 21.1355 151.643 17.978 153.762 15.293C156.951 11.2655 161.764 9.24805 168.217 9.24805C170.583 9.24805 172.619 9.49555 174.311 9.99805C176.01 10.493 178.128 11.4755 180.674 12.9455C181.886 13.6355 182.627 13.9805 182.889 13.9805C183.151 13.9805 183.488 13.793 183.9 13.4105L184.469 13.808L180.299 20.0705L179.708 19.673C179.738 19.4405 179.753 19.2455 179.753 19.0805C179.753 18.6605 179.573 18.263 179.206 17.888C178.84 17.513 178.188 17.0705 177.252 16.538C174.662 15.0755 171.922 14.348 169.025 14.348C165.604 14.348 162.879 15.203 160.843 16.913C158.448 18.9155 157.25 21.5405 157.25 24.773C157.25 28.0055 158.448 30.623 160.843 32.633C162.872 34.343 165.604 35.198 169.025 35.198C171.922 35.198 174.662 34.463 177.252 33.0005C178.188 32.4755 178.84 32.0255 179.206 31.6505C179.573 31.2755 179.753 30.878 179.753 30.4505C179.753 30.293 179.738 30.098 179.708 29.8805L180.292 29.468Z" fill="white"/>
<path d="M217.534 26.6706H200.272V37.4781C200.272 37.9206 200.376 38.2581 200.586 38.4981C200.796 38.7381 201.162 38.9256 201.672 39.0606V39.7656H192.329V39.0606C192.853 38.9106 193.22 38.7231 193.422 38.4906C193.624 38.2581 193.729 37.9206 193.729 37.4781V12.0531C193.729 11.6106 193.624 11.2731 193.422 11.0406C193.22 10.8081 192.853 10.6131 192.329 10.4706V9.76562H201.672V10.4706C201.148 10.6056 200.781 10.7856 200.579 11.0331C200.376 11.2806 200.272 11.6181 200.272 12.0531V21.7206H217.534V12.0606C217.534 11.6181 217.429 11.2806 217.227 11.0406C217.025 10.8006 216.658 10.6131 216.134 10.4781V9.77312H225.477V10.4781C224.953 10.6281 224.586 10.8156 224.384 11.0481C224.182 11.2806 224.077 11.6181 224.077 12.0606V37.4856C224.077 37.9281 224.182 38.2656 224.384 38.4981C224.586 38.7306 224.953 38.9256 225.477 39.0681V39.7731H216.134V39.0681C216.643 38.9331 217.01 38.7531 217.22 38.5056C217.429 38.2581 217.534 37.9206 217.534 37.4856V26.6706Z" fill="white"/>
<path d="M242.627 26.6108V34.8308H261.881C262.323 34.8308 262.66 34.7258 262.892 34.5233C263.124 34.3208 263.318 33.9533 263.461 33.4283H264.164V41.1758H263.461C263.311 40.6508 263.124 40.2833 262.892 40.0808C262.66 39.8783 262.323 39.7733 261.881 39.7733H234.685V39.0683C235.209 38.9183 235.575 38.7308 235.778 38.4983C235.98 38.2658 236.084 37.9208 236.084 37.4633V12.0833C236.084 11.6333 235.98 11.2883 235.778 11.0483C235.575 10.8158 235.209 10.6208 234.685 10.4783V9.77328H261.349C261.791 9.77328 262.128 9.66828 262.36 9.45828C262.592 9.24828 262.787 8.88828 262.929 8.36328H263.633V16.1258H262.929C262.779 15.6083 262.592 15.2408 262.36 15.0308C262.128 14.8208 261.791 14.7158 261.349 14.7158H242.62V21.8333H254.769C255.211 21.8333 255.548 21.7283 255.78 21.5258C256.012 21.3233 256.207 20.9558 256.349 20.4308H257.053V28.0133H256.349C256.199 27.5033 256.012 27.1358 255.78 26.9258C255.548 26.7158 255.211 26.6108 254.769 26.6108H242.627Z" fill="white"/>
<path d="M291.061 39.7734L280.019 19.0509V37.4634C280.019 37.9209 280.124 38.2584 280.326 38.4984C280.528 38.7384 280.895 38.9259 281.419 39.0684V39.7734H272.623V39.0684C273.147 38.9184 273.514 38.7309 273.716 38.4984C273.918 38.2659 274.023 37.9209 274.023 37.4634V12.0609C274.023 11.6184 273.918 11.2809 273.716 11.0484C273.514 10.8159 273.147 10.6209 272.623 10.4784V9.77344H284.166V10.4784C283.478 10.6509 283.133 11.0559 283.133 11.6859C283.133 11.9784 283.238 12.3159 283.44 12.6984L291.607 28.2009L299.887 12.9609C300.254 12.2859 300.433 11.7984 300.433 11.4909C300.433 10.8909 300.067 10.5534 299.34 10.4784V9.77344H310.659V10.4784C310.135 10.6284 309.768 10.8159 309.566 11.0484C309.364 11.2809 309.259 11.6184 309.259 12.0609V37.4634C309.259 37.9209 309.364 38.2584 309.566 38.4984C309.768 38.7384 310.135 38.9259 310.659 39.0684V39.7734H301.317V39.0684C301.826 38.9334 302.193 38.7534 302.402 38.5059C302.612 38.2584 302.717 37.9134 302.717 37.4634V19.0509L291.061 39.7734Z" fill="white"/>
<path d="M327.786 26.6108V34.8308H347.04C347.482 34.8308 347.819 34.7258 348.051 34.5233C348.283 34.3208 348.477 33.9533 348.62 33.4283H349.323V41.1758H348.62C348.47 40.6508 348.283 40.2833 348.051 40.0808C347.819 39.8783 347.482 39.7733 347.04 39.7733H319.844V39.0683C320.368 38.9183 320.735 38.7308 320.937 38.4983C321.139 38.2658 321.244 37.9208 321.244 37.4633V12.0833C321.244 11.6333 321.139 11.2883 320.937 11.0483C320.735 10.8158 320.368 10.6208 319.844 10.4783V9.77328H346.509C346.95 9.77328 347.287 9.66828 347.519 9.45828C347.751 9.24828 347.946 8.88828 348.088 8.36328H348.792V16.1258H348.096C347.946 15.6083 347.759 15.2408 347.527 15.0308C347.295 14.8208 346.958 14.7158 346.516 14.7158H327.786V21.8333H339.936C340.378 21.8333 340.715 21.7283 340.947 21.5258C341.179 21.3233 341.373 20.9558 341.516 20.4308H342.219V28.0133H341.516C341.366 27.5033 341.179 27.1358 340.947 26.9258C340.715 26.7158 340.378 26.6108 339.936 26.6108H327.786Z" fill="white"/>
<path d="M373.518 14.7236V37.4636C373.518 37.9211 373.623 38.2586 373.825 38.4986C374.027 38.7386 374.394 38.9261 374.918 39.0686V39.7736H365.575V39.0686C366.099 38.9186 366.466 38.7311 366.668 38.4986C366.87 38.2661 366.975 37.9211 366.975 37.4636V14.7236H357.678C357.236 14.7236 356.899 14.8211 356.667 15.0236C356.435 15.2261 356.24 15.5936 356.098 16.1261H355.395V8.37109H356.098C356.255 8.90359 356.45 9.27109 356.682 9.47359C356.914 9.67609 357.244 9.77359 357.678 9.77359H382.786C383.242 9.77359 383.579 9.67609 383.819 9.47359C384.058 9.27109 384.245 8.90359 384.388 8.37109H385.091V16.1261H384.388C384.238 15.5936 384.051 15.2186 383.819 15.0236C383.587 14.8211 383.242 14.7236 382.786 14.7236H373.518Z" fill="white"/>
<path d="M86.9414 51.8786L87.0686 54.4436H86.7467C86.6869 53.9936 86.597 53.6711 86.4922 53.4761C86.3126 53.1611 86.0805 52.9361 85.7885 52.7861C85.4966 52.6361 85.1073 52.5611 84.6357 52.5611H83.0113V60.9086C83.0113 61.5836 83.0861 61.9961 83.2433 62.1686C83.4604 62.3936 83.7898 62.5061 84.239 62.5061H84.6432V62.8061H79.7399V62.5061H80.1516C80.6382 62.5061 80.9901 62.3636 81.1922 62.0861C81.3194 61.9136 81.3793 61.5236 81.3793 60.9086V52.5611H79.9869C79.448 52.5611 79.0662 52.5986 78.8341 52.6736C78.5422 52.7786 78.2876 52.9736 78.078 53.2586C77.8684 53.5436 77.7412 53.9411 77.7037 54.4361H77.3818L77.5166 51.8711H86.9414V51.8786Z" fill="white"/>
<path d="M87.9666 58.2012C87.9591 59.2962 88.2436 60.1587 88.8125 60.7812C89.3815 61.4037 90.0477 61.7187 90.8188 61.7187C91.3278 61.7187 91.777 61.5837 92.1513 61.3212C92.5256 61.0587 92.8475 60.6012 93.102 59.9562L93.364 60.1137C93.2442 60.8487 92.8999 61.5237 92.3234 62.1237C91.747 62.7312 91.0284 63.0312 90.1675 63.0312C89.2318 63.0312 88.4308 62.6862 87.757 61.9962C87.0908 61.3062 86.7539 60.3762 86.7539 59.2137C86.7539 57.9537 87.0983 56.9637 87.7795 56.2587C88.4682 55.5537 89.3216 55.2012 90.3546 55.2012C91.2305 55.2012 91.9492 55.4712 92.5106 56.0187C93.072 56.5662 93.3565 57.2937 93.3565 58.2087H87.9666V58.2012ZM87.9666 57.7362H91.5823C91.5524 57.2637 91.4925 56.9337 91.4027 56.7387C91.2604 56.4387 91.0508 56.1987 90.7664 56.0262C90.4819 55.8537 90.19 55.7712 89.883 55.7712C89.4114 55.7712 88.9922 55.9437 88.6179 56.2887C88.2436 56.6412 88.0265 57.1212 87.9666 57.7362Z" fill="white"/>
<path d="M100.857 59.9995C100.648 60.9745 100.236 61.717 99.6223 62.242C99.0085 62.767 98.3272 63.0295 97.5861 63.0295C96.7028 63.0295 95.9243 62.677 95.2655 61.972C94.6067 61.267 94.2773 60.3145 94.2773 59.122C94.2773 57.9595 94.6442 57.022 95.3703 56.2945C96.0964 55.567 96.9798 55.207 97.9979 55.207C98.7614 55.207 99.3977 55.402 99.8918 55.7845C100.386 56.167 100.633 56.5645 100.633 56.977C100.633 57.1795 100.566 57.3445 100.423 57.472C100.281 57.5995 100.086 57.6595 99.8394 57.6595C99.5025 57.6595 99.248 57.5545 99.0833 57.352C98.986 57.2395 98.9261 57.022 98.8887 56.707C98.8513 56.392 98.739 56.1445 98.5443 55.9795C98.3422 55.822 98.0727 55.7395 97.7209 55.7395C97.1519 55.7395 96.6953 55.9345 96.351 56.332C95.8868 56.857 95.6622 57.5545 95.6622 58.417C95.6622 59.2945 95.8943 60.0745 96.351 60.7495C96.8076 61.4245 97.4289 61.762 98.2075 61.762C98.7614 61.762 99.263 61.582 99.7047 61.222C100.019 60.9745 100.318 60.5245 100.618 59.8795L100.857 59.9995Z" fill="white"/>
<path d="M104.091 51.3457V56.7457C104.72 56.0932 105.222 55.6732 105.589 55.4857C105.955 55.2982 106.33 55.2082 106.697 55.2082C107.138 55.2082 107.52 55.3207 107.842 55.5532C108.164 55.7857 108.396 56.1457 108.553 56.6407C108.658 56.9857 108.718 57.6157 108.718 58.5232V61.1332C108.718 61.5982 108.755 61.9207 108.838 62.0932C108.897 62.2207 108.995 62.3257 109.129 62.4007C109.264 62.4757 109.519 62.5132 109.878 62.5132V62.8057H106.045V62.5132H106.225C106.592 62.5132 106.839 62.4607 106.981 62.3557C107.123 62.2507 107.221 62.0932 107.28 61.8907C107.295 61.8082 107.303 61.5532 107.303 61.1332V58.5232C107.303 57.7207 107.258 57.1882 107.168 56.9332C107.078 56.6782 106.936 56.4907 106.749 56.3632C106.554 56.2357 106.322 56.1757 106.053 56.1757C105.776 56.1757 105.484 56.2432 105.184 56.3857C104.885 56.5282 104.526 56.8057 104.099 57.2332V61.1332C104.099 61.6357 104.129 61.9507 104.189 62.0782C104.249 62.2057 104.361 62.3032 104.518 62.3857C104.683 62.4682 104.96 62.5132 105.357 62.5132V62.8057H101.486V62.5132C101.831 62.5132 102.108 62.4607 102.302 62.3632C102.415 62.3107 102.504 62.2057 102.572 62.0557C102.639 61.9057 102.677 61.5982 102.677 61.1407V54.4582C102.677 53.6182 102.654 53.0932 102.617 52.9057C102.572 52.7107 102.512 52.5832 102.422 52.5082C102.332 52.4407 102.212 52.4032 102.07 52.4032C101.95 52.4032 101.756 52.4482 101.494 52.5307L101.374 52.2457L103.71 51.3457H104.091Z" fill="white"/>
<path d="M112.633 56.767C113.546 55.7245 114.422 55.207 115.253 55.207C115.68 55.207 116.046 55.3045 116.353 55.507C116.66 55.7095 116.907 56.0395 117.087 56.5045C117.214 56.827 117.274 57.322 117.274 57.9895V61.1395C117.274 61.6045 117.311 61.927 117.394 62.092C117.454 62.227 117.559 62.332 117.693 62.407C117.835 62.482 118.09 62.5195 118.464 62.5195V62.812H114.602V62.5195H114.766C115.133 62.5195 115.388 62.467 115.53 62.362C115.672 62.257 115.777 62.0995 115.829 61.897C115.852 61.8145 115.867 61.567 115.867 61.1395V58.117C115.867 57.442 115.777 56.962 115.59 56.6545C115.403 56.347 115.096 56.197 114.654 56.197C113.98 56.197 113.307 56.5495 112.633 57.247V61.1395C112.633 61.642 112.663 61.9495 112.73 62.0695C112.812 62.227 112.917 62.3395 113.059 62.4145C113.202 62.4895 113.479 62.5195 113.905 62.5195V62.812H110.043V62.5195H110.215C110.612 62.5195 110.881 62.422 111.023 62.2345C111.166 62.047 111.233 61.6795 111.233 61.1395V58.402C111.233 57.517 111.21 56.977 111.166 56.782C111.121 56.587 111.061 56.4595 110.971 56.3845C110.881 56.317 110.761 56.2795 110.619 56.2795C110.462 56.2795 110.267 56.317 110.05 56.3995L109.923 56.107L112.273 55.207H112.64V56.767H112.633Z" fill="white"/>
<path d="M121.602 55.2082V61.1407C121.602 61.6057 121.639 61.9132 121.706 62.0632C121.774 62.2207 121.878 62.3332 122.021 62.4082C122.163 62.4832 122.417 62.5207 122.784 62.5207V62.8132H118.989V62.5207C119.371 62.5207 119.625 62.4832 119.752 62.4157C119.88 62.3482 119.985 62.2282 120.067 62.0707C120.149 61.9132 120.179 61.5982 120.179 61.1407V58.2982C120.179 57.4957 120.157 56.9782 120.104 56.7457C120.067 56.5732 120 56.4532 119.917 56.3857C119.835 56.3182 119.715 56.2882 119.565 56.2882C119.408 56.2882 119.213 56.3257 118.989 56.4082L118.869 56.1157L121.22 55.2157H121.602V55.2082ZM120.898 51.3457C121.137 51.3457 121.34 51.4282 121.504 51.5857C121.669 51.7432 121.759 51.9382 121.759 52.1632C121.759 52.3882 121.676 52.5832 121.504 52.7407C121.34 52.8982 121.13 52.9807 120.898 52.9807C120.658 52.9807 120.456 52.8982 120.284 52.7407C120.112 52.5832 120.029 52.3882 120.029 52.1632C120.029 51.9382 120.112 51.7432 120.284 51.5857C120.449 51.4282 120.651 51.3457 120.898 51.3457Z" fill="white"/>
<path d="M130.218 59.9995C130.008 60.9745 129.597 61.717 128.983 62.242C128.369 62.767 127.688 63.0295 126.946 63.0295C126.063 63.0295 125.285 62.677 124.626 61.972C123.967 61.267 123.638 60.3145 123.638 59.122C123.638 57.9595 124.004 57.022 124.731 56.2945C125.457 55.567 126.34 55.207 127.358 55.207C128.122 55.207 128.758 55.402 129.252 55.7845C129.746 56.167 129.993 56.5645 129.993 56.977C129.993 57.1795 129.926 57.3445 129.784 57.472C129.641 57.5995 129.447 57.6595 129.2 57.6595C128.863 57.6595 128.608 57.5545 128.444 57.352C128.346 57.2395 128.286 57.022 128.249 56.707C128.212 56.392 128.099 56.1445 127.905 55.9795C127.703 55.822 127.433 55.7395 127.081 55.7395C126.512 55.7395 126.056 55.9345 125.711 56.332C125.247 56.857 125.023 57.5545 125.023 58.417C125.023 59.2945 125.255 60.0745 125.711 60.7495C126.168 61.4245 126.789 61.762 127.568 61.762C128.122 61.762 128.623 61.582 129.065 61.222C129.379 60.9745 129.679 60.5245 129.978 59.8795L130.218 59.9995Z" fill="white"/>
<path d="M135.585 61.7409C134.784 62.3259 134.282 62.6634 134.073 62.7534C133.766 62.8884 133.436 62.9559 133.092 62.9559C132.553 62.9559 132.104 62.7834 131.759 62.4309C131.415 62.0784 131.235 61.6209 131.235 61.0509C131.235 60.6909 131.318 60.3759 131.49 60.1134C131.722 59.7459 132.126 59.4009 132.703 59.0784C133.279 58.7559 134.237 58.3659 135.577 57.9009V57.6084C135.577 56.8734 135.45 56.3709 135.203 56.0934C134.956 55.8159 134.597 55.6809 134.125 55.6809C133.766 55.6809 133.481 55.7709 133.272 55.9584C133.054 56.1384 132.95 56.3484 132.95 56.5884L132.965 57.0534C132.965 57.3009 132.897 57.4884 132.762 57.6234C132.628 57.7584 132.456 57.8259 132.238 57.8259C132.029 57.8259 131.857 57.7584 131.722 57.6159C131.587 57.4734 131.52 57.2859 131.52 57.0459C131.52 56.5809 131.767 56.1609 132.268 55.7709C132.77 55.3809 133.474 55.1934 134.372 55.1934C135.068 55.1934 135.637 55.3059 136.079 55.5234C136.416 55.6884 136.663 55.9509 136.82 56.3034C136.925 56.5359 136.977 57.0084 136.977 57.7209V60.2259C136.977 60.9309 136.992 61.3584 137.022 61.5159C137.052 61.6734 137.097 61.7784 137.164 61.8309C137.232 61.8834 137.306 61.9134 137.389 61.9134C137.479 61.9134 137.561 61.8909 137.628 61.8534C137.748 61.7859 137.98 61.5909 138.317 61.2684V61.7184C137.681 62.5209 137.074 62.9259 136.49 62.9259C136.214 62.9259 135.989 62.8359 135.824 62.6484C135.675 62.4909 135.585 62.1834 135.585 61.7409ZM135.585 61.2159V58.4034C134.724 58.7259 134.17 58.9509 133.923 59.0859C133.474 59.3259 133.152 59.5659 132.957 59.8284C132.762 60.0834 132.665 60.3684 132.665 60.6759C132.665 61.0659 132.785 61.3809 133.032 61.6359C133.279 61.8909 133.556 62.0184 133.878 62.0184C134.312 62.0259 134.881 61.7559 135.585 61.2159Z" fill="white"/>
<path d="M141.417 51.3454V61.1329C141.417 61.5979 141.454 61.8979 141.522 62.0479C141.589 62.1979 141.701 62.3104 141.851 62.3929C142.001 62.4679 142.278 62.5129 142.675 62.5129V62.8054H138.849V62.5129C139.209 62.5129 139.448 62.4754 139.583 62.4079C139.718 62.3404 139.815 62.2204 139.89 62.0629C139.965 61.9054 140.002 61.5904 140.002 61.1329V54.4279C140.002 53.5954 139.98 53.0854 139.942 52.8904C139.905 52.7029 139.837 52.5679 139.748 52.5004C139.658 52.4329 139.545 52.3954 139.411 52.3954C139.261 52.3954 139.074 52.4404 138.849 52.5229L138.707 52.2379L141.035 51.3379H141.417V51.3454Z" fill="white"/>
<path d="M143.805 65.5509V65.1984C144.389 65.0184 144.845 64.7334 145.167 64.3509C145.489 63.9684 145.646 63.5634 145.646 63.1284C145.646 63.0234 145.624 62.9409 145.571 62.8734C145.534 62.8284 145.489 62.7984 145.452 62.7984C145.392 62.7984 145.249 62.8509 145.04 62.9559C144.935 63.0009 144.83 63.0309 144.718 63.0309C144.441 63.0309 144.216 62.9559 144.052 62.7984C143.887 62.6409 143.805 62.4309 143.805 62.1534C143.805 61.8909 143.909 61.6659 144.127 61.4784C144.336 61.2909 144.598 61.1934 144.905 61.1934C145.279 61.1934 145.616 61.3509 145.908 61.6584C146.2 61.9659 146.35 62.3784 146.35 62.8884C146.35 63.4434 146.148 63.9534 145.744 64.4334C145.324 64.9059 144.681 65.2809 143.805 65.5509Z" fill="white"/>
<path d="M161.755 51.6305L162.017 55.343H161.755C161.404 54.233 160.902 53.4305 160.243 52.943C159.585 52.4555 158.806 52.208 157.893 52.208C157.122 52.208 156.433 52.3955 155.812 52.763C155.19 53.1305 154.704 53.7155 154.352 54.5255C154 55.3355 153.82 56.333 153.82 57.533C153.82 58.523 153.985 59.378 154.322 60.1055C154.659 60.833 155.16 61.388 155.834 61.7705C156.508 62.153 157.279 62.348 158.14 62.348C158.888 62.348 159.555 62.198 160.124 61.8905C160.7 61.583 161.329 60.983 162.017 60.083L162.279 60.2405C161.703 61.2155 161.022 61.928 160.251 62.378C159.48 62.828 158.559 63.053 157.496 63.053C155.58 63.053 154.097 62.378 153.049 61.0355C152.263 60.038 151.874 58.8605 151.874 57.503C151.874 56.4155 152.129 55.4105 152.653 54.4955C153.169 53.5805 153.88 52.8755 154.786 52.373C155.692 51.8705 156.68 51.623 157.758 51.623C158.596 51.623 159.42 51.818 160.228 52.2005C160.468 52.3205 160.64 52.3805 160.737 52.3805C160.895 52.3805 161.022 52.328 161.142 52.2305C161.291 52.088 161.396 51.8855 161.456 51.623H161.755V51.6305Z" fill="white"/>
<path d="M165.551 51.3457V56.7457C166.18 56.0932 166.682 55.6732 167.049 55.4857C167.415 55.2982 167.79 55.2082 168.156 55.2082C168.598 55.2082 168.98 55.3207 169.302 55.5532C169.624 55.7857 169.856 56.1457 170.013 56.6407C170.118 56.9857 170.178 57.6157 170.178 58.5232V61.1332C170.178 61.5982 170.215 61.9207 170.297 62.0932C170.357 62.2207 170.455 62.3257 170.589 62.4007C170.724 62.4757 170.979 62.5132 171.338 62.5132V62.8057H167.505V62.5132H167.685C168.052 62.5132 168.299 62.4607 168.441 62.3557C168.583 62.2507 168.681 62.0932 168.74 61.8907C168.755 61.8082 168.763 61.5532 168.763 61.1332V58.5232C168.763 57.7207 168.718 57.1882 168.628 56.9332C168.538 56.6782 168.396 56.4907 168.209 56.3632C168.014 56.2357 167.782 56.1757 167.513 56.1757C167.236 56.1757 166.944 56.2432 166.644 56.3857C166.345 56.5282 165.986 56.8057 165.559 57.2332V61.1332C165.559 61.6357 165.589 61.9507 165.649 62.0782C165.709 62.2057 165.821 62.3032 165.978 62.3857C166.143 62.4682 166.42 62.5132 166.816 62.5132V62.8057H162.946V62.5132C163.291 62.5132 163.568 62.4607 163.762 62.3632C163.875 62.3107 163.964 62.2057 164.032 62.0557C164.099 61.9057 164.137 61.5982 164.137 61.1407V54.4582C164.137 53.6182 164.114 53.0932 164.077 52.9057C164.032 52.7107 163.972 52.5832 163.882 52.5082C163.792 52.4407 163.672 52.4032 163.53 52.4032C163.41 52.4032 163.216 52.4482 162.954 52.5307L162.834 52.2457L165.17 51.3457H165.551Z" fill="white"/>
<path d="M173.127 58.2012C173.119 59.2962 173.404 60.1587 173.973 60.7812C174.542 61.4037 175.208 61.7187 175.979 61.7187C176.488 61.7187 176.937 61.5837 177.311 61.3212C177.686 61.0587 178.008 60.6012 178.262 59.9562L178.524 60.1137C178.404 60.8487 178.06 61.5237 177.484 62.1237C176.907 62.7312 176.189 63.0312 175.328 63.0312C174.392 63.0312 173.591 62.6862 172.917 61.9962C172.251 61.3062 171.914 60.3762 171.914 59.2137C171.914 57.9537 172.258 56.9637 172.94 56.2587C173.628 55.5537 174.482 55.2012 175.515 55.2012C176.391 55.2012 177.109 55.4712 177.671 56.0187C178.232 56.5662 178.517 57.2937 178.517 58.2087H173.127V58.2012ZM173.127 57.7362H176.743C176.713 57.2637 176.653 56.9337 176.563 56.7387C176.421 56.4387 176.211 56.1987 175.927 56.0262C175.642 55.8537 175.35 55.7712 175.043 55.7712C174.572 55.7712 174.152 55.9437 173.778 56.2887C173.404 56.6412 173.187 57.1212 173.127 57.7362Z" fill="white"/>
<path d="M181.706 56.7762C182.275 56.2362 182.612 55.9287 182.709 55.8462C182.964 55.6437 183.241 55.4862 183.533 55.3737C183.825 55.2612 184.124 55.2012 184.409 55.2012C184.895 55.2012 185.315 55.3362 185.666 55.6062C186.018 55.8762 186.258 56.2662 186.378 56.7762C186.961 56.1312 187.456 55.7112 187.86 55.5087C188.264 55.3062 188.676 55.2087 189.102 55.2087C189.514 55.2087 189.888 55.3062 190.203 55.5087C190.525 55.7112 190.779 56.0412 190.966 56.4987C191.094 56.8137 191.154 57.3012 191.154 57.9687V61.1412C191.154 61.6062 191.191 61.9212 191.266 62.0937C191.326 62.2137 191.431 62.3112 191.58 62.3937C191.737 62.4762 191.985 62.5212 192.329 62.5212V62.8137H188.474V62.5212H188.638C188.975 62.5212 189.237 62.4612 189.424 62.3337C189.552 62.2512 189.649 62.1087 189.709 61.9212C189.731 61.8312 189.746 61.5687 189.746 61.1412V57.9687C189.746 57.3687 189.671 56.9412 189.514 56.6937C189.29 56.3487 188.938 56.1762 188.451 56.1762C188.152 56.1762 187.845 56.2437 187.545 56.3862C187.238 56.5287 186.872 56.7912 186.445 57.1812L186.43 57.2712L186.445 57.6162V61.1337C186.445 61.6362 186.475 61.9512 186.535 62.0787C186.595 62.2062 186.707 62.3037 186.872 62.3862C187.036 62.4687 187.321 62.5137 187.718 62.5137V62.8062H183.772V62.5137C184.207 62.5137 184.499 62.4687 184.663 62.3712C184.828 62.2737 184.94 62.1312 185 61.9362C185.03 61.8462 185.045 61.5762 185.045 61.1412V57.9687C185.045 57.3687 184.955 56.9337 184.761 56.6712C184.514 56.3262 184.162 56.1537 183.713 56.1537C183.406 56.1537 183.099 56.2287 182.799 56.3862C182.328 56.6262 181.961 56.8887 181.706 57.1812V61.1337C181.706 61.6137 181.744 61.9287 181.811 62.0787C181.879 62.2212 181.983 62.3337 182.126 62.4087C182.268 62.4837 182.545 62.5137 182.971 62.5137V62.8062H179.109V62.5137C179.468 62.5137 179.715 62.4762 179.857 62.4087C180 62.3337 180.104 62.2212 180.179 62.0637C180.254 61.9062 180.291 61.5987 180.291 61.1412V58.3212C180.291 57.5112 180.269 56.9862 180.217 56.7537C180.179 56.5737 180.112 56.4537 180.029 56.3862C179.947 56.3187 179.827 56.2887 179.678 56.2887C179.52 56.2887 179.326 56.3262 179.109 56.4087L178.981 56.1162L181.332 55.2162H181.699V56.7762H181.706Z" fill="white"/>
<path d="M195.48 55.2082V61.1407C195.48 61.6057 195.518 61.9132 195.585 62.0632C195.653 62.2207 195.757 62.3332 195.9 62.4082C196.042 62.4832 196.296 62.5207 196.663 62.5207V62.8132H192.868V62.5207C193.25 62.5207 193.504 62.4832 193.631 62.4157C193.759 62.3482 193.863 62.2282 193.946 62.0707C194.028 61.9132 194.058 61.5982 194.058 61.1407V58.2982C194.058 57.4957 194.036 56.9782 193.983 56.7457C193.946 56.5732 193.878 56.4532 193.796 56.3857C193.714 56.3182 193.594 56.2882 193.444 56.2882C193.287 56.2882 193.092 56.3257 192.868 56.4082L192.748 56.1157L195.099 55.2157H195.48V55.2082ZM194.777 51.3457C195.016 51.3457 195.218 51.4282 195.383 51.5857C195.548 51.7432 195.638 51.9382 195.638 52.1632C195.638 52.3882 195.555 52.5832 195.383 52.7407C195.218 52.8982 195.009 52.9807 194.777 52.9807C194.537 52.9807 194.335 52.8982 194.163 52.7407C193.991 52.5832 193.908 52.3882 193.908 52.1632C193.908 51.9382 193.991 51.7432 194.163 51.5857C194.328 51.4282 194.53 51.3457 194.777 51.3457Z" fill="white"/>
<path d="M204.097 59.9995C203.887 60.9745 203.475 61.717 202.862 62.242C202.248 62.767 201.566 63.0295 200.825 63.0295C199.942 63.0295 199.164 62.677 198.505 61.972C197.846 61.267 197.517 60.3145 197.517 59.122C197.517 57.9595 197.883 57.022 198.61 56.2945C199.336 55.567 200.219 55.207 201.237 55.207C202.001 55.207 202.637 55.402 203.131 55.7845C203.625 56.167 203.872 56.5645 203.872 56.977C203.872 57.1795 203.805 57.3445 203.663 57.472C203.52 57.5995 203.326 57.6595 203.079 57.6595C202.742 57.6595 202.487 57.5545 202.323 57.352C202.225 57.2395 202.165 57.022 202.128 56.707C202.091 56.392 201.978 56.1445 201.784 55.9795C201.581 55.822 201.312 55.7395 200.96 55.7395C200.391 55.7395 199.935 55.9345 199.59 56.332C199.126 56.857 198.902 57.5545 198.902 58.417C198.902 59.2945 199.134 60.0745 199.59 60.7495C200.047 61.4245 200.668 61.762 201.447 61.762C202.001 61.762 202.502 61.582 202.944 61.222C203.258 60.9745 203.558 60.5245 203.857 59.8795L204.097 59.9995Z" fill="white"/>
<path d="M209.464 61.7409C208.663 62.3259 208.161 62.6634 207.951 62.7534C207.645 62.8884 207.315 62.9559 206.971 62.9559C206.432 62.9559 205.983 62.7834 205.638 62.4309C205.294 62.0784 205.114 61.6209 205.114 61.0509C205.114 60.6909 205.197 60.3759 205.369 60.1134C205.601 59.7459 206.005 59.4009 206.581 59.0784C207.158 58.7559 208.116 58.3659 209.456 57.9009V57.6084C209.456 56.8734 209.329 56.3709 209.082 56.0934C208.835 55.8159 208.475 55.6809 208.004 55.6809C207.644 55.6809 207.36 55.7709 207.15 55.9584C206.933 56.1384 206.829 56.3484 206.829 56.5884L206.844 57.0534C206.844 57.3009 206.776 57.4884 206.641 57.6234C206.507 57.7584 206.334 57.8259 206.117 57.8259C205.908 57.8259 205.736 57.7584 205.601 57.6159C205.466 57.4734 205.399 57.2859 205.399 57.0459C205.399 56.5809 205.646 56.1609 206.147 55.7709C206.649 55.3809 207.353 55.1934 208.251 55.1934C208.947 55.1934 209.516 55.3059 209.958 55.5234C210.295 55.6884 210.542 55.9509 210.699 56.3034C210.804 56.5359 210.856 57.0084 210.856 57.7209V60.2259C210.856 60.9309 210.871 61.3584 210.901 61.5159C210.931 61.6734 210.976 61.7784 211.043 61.8309C211.111 61.8834 211.185 61.9134 211.268 61.9134C211.358 61.9134 211.44 61.8909 211.507 61.8534C211.627 61.7859 211.859 61.5909 212.196 61.2684V61.7184C211.56 62.5209 210.953 62.9259 210.369 62.9259C210.092 62.9259 209.868 62.8359 209.703 62.6484C209.553 62.4909 209.471 62.1834 209.464 61.7409ZM209.464 61.2159V58.4034C208.603 58.7259 208.049 58.9509 207.802 59.0859C207.353 59.3259 207.031 59.5659 206.836 59.8284C206.641 60.0834 206.544 60.3684 206.544 60.6759C206.544 61.0659 206.664 61.3809 206.911 61.6359C207.158 61.8909 207.435 62.0184 207.757 62.0184C208.191 62.0259 208.76 61.7559 209.464 61.2159Z" fill="white"/>
<path d="M215.295 51.3454V61.1329C215.295 61.5979 215.332 61.8979 215.4 62.0479C215.467 62.1979 215.579 62.3104 215.729 62.3929C215.879 62.4679 216.156 62.5129 216.552 62.5129V62.8054H212.727V62.5129C213.087 62.5129 213.326 62.4754 213.461 62.4079C213.596 62.3404 213.693 62.2204 213.768 62.0629C213.843 61.9054 213.88 61.5904 213.88 61.1329V54.4279C213.88 53.5954 213.858 53.0854 213.82 52.8904C213.783 52.7029 213.715 52.5679 213.625 52.5004C213.536 52.4329 213.423 52.3954 213.289 52.3954C213.139 52.3954 212.952 52.4404 212.727 52.5229L212.585 52.2379L214.913 51.3379H215.295V51.3454Z" fill="white"/>
<path d="M225.903 61.7409C225.102 62.3259 224.6 62.6634 224.391 62.7534C224.084 62.8884 223.755 62.9559 223.41 62.9559C222.871 62.9559 222.422 62.7834 222.078 62.4309C221.733 62.0784 221.554 61.6209 221.554 61.0509C221.554 60.6909 221.636 60.3759 221.808 60.1134C222.04 59.7459 222.445 59.4009 223.021 59.0784C223.597 58.7559 224.556 58.3659 225.896 57.9009V57.6084C225.896 56.8734 225.768 56.3709 225.521 56.0934C225.274 55.8159 224.915 55.6809 224.443 55.6809C224.084 55.6809 223.799 55.7709 223.59 55.9584C223.373 56.1384 223.268 56.3484 223.268 56.5884L223.283 57.0534C223.283 57.3009 223.216 57.4884 223.081 57.6234C222.946 57.7584 222.774 57.8259 222.557 57.8259C222.347 57.8259 222.175 57.7584 222.04 57.6159C221.906 57.4734 221.838 57.2859 221.838 57.0459C221.838 56.5809 222.085 56.1609 222.587 55.7709C223.088 55.3809 223.792 55.1934 224.69 55.1934C225.387 55.1934 225.955 55.3059 226.397 55.5234C226.734 55.6884 226.981 55.9509 227.138 56.3034C227.243 56.5359 227.295 57.0084 227.295 57.7209V60.2259C227.295 60.9309 227.31 61.3584 227.34 61.5159C227.37 61.6734 227.415 61.7784 227.483 61.8309C227.55 61.8834 227.625 61.9134 227.707 61.9134C227.797 61.9134 227.879 61.8909 227.947 61.8534C228.066 61.7859 228.299 61.5909 228.635 61.2684V61.7184C227.999 62.5209 227.393 62.9259 226.809 62.9259C226.532 62.9259 226.307 62.8359 226.143 62.6484C225.993 62.4909 225.911 62.1834 225.903 61.7409ZM225.903 61.2159V58.4034C225.042 58.7259 224.488 58.9509 224.241 59.0859C223.792 59.3259 223.47 59.5659 223.275 59.8284C223.081 60.0834 222.984 60.3684 222.984 60.6759C222.984 61.0659 223.103 61.3809 223.35 61.6359C223.597 61.8909 223.874 62.0184 224.196 62.0184C224.63 62.0259 225.199 61.7559 225.903 61.2159Z" fill="white"/>
<path d="M231.33 56.767C232.243 55.7245 233.119 55.207 233.95 55.207C234.377 55.207 234.744 55.3045 235.051 55.507C235.357 55.7095 235.605 56.0395 235.784 56.5045C235.911 56.827 235.971 57.322 235.971 57.9895V61.1395C235.971 61.6045 236.009 61.927 236.091 62.092C236.151 62.227 236.256 62.332 236.391 62.407C236.533 62.482 236.787 62.5195 237.162 62.5195V62.812H233.299V62.5195H233.464C233.83 62.5195 234.085 62.467 234.227 62.362C234.369 62.257 234.474 62.0995 234.527 61.897C234.549 61.8145 234.564 61.567 234.564 61.1395V58.117C234.564 57.442 234.474 56.962 234.287 56.6545C234.1 56.347 233.793 56.197 233.351 56.197C232.678 56.197 232.004 56.5495 231.33 57.247V61.1395C231.33 61.642 231.36 61.9495 231.427 62.0695C231.51 62.227 231.614 62.3395 231.757 62.4145C231.899 62.4895 232.176 62.5195 232.603 62.5195V62.812H228.74V62.5195H228.912C229.309 62.5195 229.578 62.422 229.721 62.2345C229.863 62.047 229.93 61.6795 229.93 61.1395V58.402C229.93 57.517 229.908 56.977 229.863 56.782C229.818 56.587 229.758 56.4595 229.668 56.3845C229.578 56.317 229.459 56.2795 229.316 56.2795C229.159 56.2795 228.964 56.317 228.747 56.3995L228.62 56.107L230.971 55.207H231.338V56.767H231.33Z" fill="white"/>
<path d="M243.12 61.9732C242.739 62.3482 242.364 62.6182 242.005 62.7832C241.638 62.9482 241.249 63.0307 240.83 63.0307C239.976 63.0307 239.235 62.6932 238.599 62.0182C237.963 61.3432 237.641 60.4807 237.641 59.4232C237.641 58.3657 237.992 57.3982 238.696 56.5207C239.4 55.6432 240.306 55.2007 241.414 55.2007C242.102 55.2007 242.671 55.4107 243.12 55.8232V54.4582C243.12 53.6182 243.098 53.0932 243.06 52.9057C243.023 52.7182 242.948 52.5832 242.858 52.5082C242.768 52.4407 242.656 52.4032 242.514 52.4032C242.364 52.4032 242.17 52.4482 241.923 52.5307L241.81 52.2457L244.138 51.3457H244.52V59.8807C244.52 60.7432 244.543 61.2757 244.588 61.4632C244.632 61.6507 244.7 61.7857 244.79 61.8607C244.887 61.9357 244.992 61.9732 245.119 61.9732C245.276 61.9732 245.478 61.9282 245.733 61.8382L245.823 62.1232L243.502 63.0307H243.113V61.9732H243.12ZM243.12 61.4107V57.6082C243.09 57.2407 242.986 56.9107 242.813 56.6107C242.641 56.3107 242.417 56.0857 242.14 55.9282C241.855 55.7707 241.586 55.6957 241.316 55.6957C240.815 55.6957 240.373 55.9057 239.976 56.3332C239.46 56.8957 239.198 57.7057 239.198 58.7857C239.198 59.8732 239.445 60.6982 239.946 61.2832C240.448 61.8607 241.002 62.1457 241.616 62.1457C242.14 62.1457 242.634 61.8982 243.12 61.4107Z" fill="white"/>
<path d="M256.947 62.8045L252.478 53.6095V60.907C252.478 61.582 252.553 61.9945 252.71 62.167C252.92 62.392 253.249 62.5045 253.706 62.5045H254.117V62.8045H250.09V62.5045H250.502C250.988 62.5045 251.34 62.362 251.542 62.0845C251.669 61.912 251.729 61.522 251.729 60.907V53.7745C251.729 53.2945 251.669 52.942 251.557 52.7245C251.475 52.567 251.333 52.4395 251.115 52.3345C250.906 52.2295 250.561 52.177 250.09 52.177V51.877H253.361L257.553 60.427L261.678 51.877H264.949V52.177H264.545C264.051 52.177 263.699 52.3195 263.497 52.597C263.37 52.7695 263.31 53.1595 263.31 53.7745V60.9145C263.31 61.5895 263.392 62.002 263.55 62.1745C263.759 62.3995 264.089 62.512 264.545 62.512H264.949V62.812H260.039V62.512H260.45C260.944 62.512 261.289 62.3695 261.491 62.092C261.618 61.9195 261.678 61.5295 261.678 60.9145V53.617L257.216 62.812H256.947V62.8045Z" fill="white"/>
<path d="M267.009 58.2012C267.001 59.2962 267.286 60.1587 267.855 60.7812C268.423 61.4037 269.09 61.7187 269.861 61.7187C270.37 61.7187 270.819 61.5837 271.193 61.3212C271.568 61.0587 271.889 60.6012 272.144 59.9562L272.406 60.1137C272.286 60.8487 271.942 61.5237 271.365 62.1237C270.789 62.7312 270.07 63.0312 269.209 63.0312C268.274 63.0312 267.473 62.6862 266.799 61.9962C266.133 61.3062 265.796 60.3762 265.796 59.2137C265.796 57.9537 266.14 56.9637 266.821 56.2587C267.51 55.5537 268.364 55.2012 269.397 55.2012C270.272 55.2012 270.991 55.4712 271.553 56.0187C272.114 56.5662 272.399 57.2937 272.399 58.2087H267.009V58.2012ZM267.009 57.7362H270.624C270.594 57.2637 270.534 56.9337 270.445 56.7387C270.302 56.4387 270.093 56.1987 269.808 56.0262C269.524 55.8537 269.232 55.7712 268.925 55.7712C268.453 55.7712 268.034 55.9437 267.66 56.2887C267.293 56.6412 267.076 57.1212 267.009 57.7362Z" fill="white"/>
<path d="M275.542 53.002V55.4245H277.369V55.987H275.542V60.772C275.542 61.252 275.617 61.5745 275.759 61.7395C275.902 61.9045 276.089 61.987 276.321 61.987C276.508 61.987 276.688 61.9345 276.867 61.822C277.047 61.7095 277.182 61.552 277.279 61.3345H277.608C277.406 61.8595 277.129 62.257 276.762 62.5195C276.396 62.7895 276.021 62.917 275.64 62.917C275.378 62.917 275.123 62.8495 274.876 62.7145C274.629 62.5795 274.442 62.3845 274.322 62.1295C274.202 61.8745 274.142 61.477 274.142 60.952V55.987H272.907V55.7245C273.222 55.6045 273.536 55.4095 273.865 55.1245C274.195 54.8395 274.487 54.5095 274.741 54.1195C274.869 53.917 275.056 53.542 275.288 53.002H275.542Z" fill="white"/>
<path d="M282.369 61.7409C281.568 62.3259 281.066 62.6634 280.857 62.7534C280.55 62.8884 280.22 62.9559 279.876 62.9559C279.337 62.9559 278.888 62.7834 278.544 62.4309C278.199 62.0784 278.02 61.6209 278.02 61.0509C278.02 60.6909 278.102 60.3759 278.274 60.1134C278.506 59.7459 278.91 59.4009 279.487 59.0784C280.063 58.7559 281.021 58.3659 282.361 57.9009V57.6084C282.361 56.8734 282.234 56.3709 281.987 56.0934C281.74 55.8159 281.381 55.6809 280.909 55.6809C280.55 55.6809 280.265 55.7709 280.056 55.9584C279.839 56.1384 279.734 56.3484 279.734 56.5884L279.749 57.0534C279.749 57.3009 279.681 57.4884 279.547 57.6234C279.412 57.7584 279.24 57.8259 279.023 57.8259C278.813 57.8259 278.641 57.7584 278.506 57.6159C278.371 57.4734 278.304 57.2859 278.304 57.0459C278.304 56.5809 278.551 56.1609 279.053 55.7709C279.554 55.3809 280.258 55.1934 281.156 55.1934C281.852 55.1934 282.421 55.3059 282.863 55.5234C283.2 55.6884 283.447 55.9509 283.604 56.3034C283.709 56.5359 283.761 57.0084 283.761 57.7209V60.2259C283.761 60.9309 283.776 61.3584 283.806 61.5159C283.836 61.6734 283.881 61.7784 283.948 61.8309C284.016 61.8834 284.091 61.9134 284.173 61.9134C284.263 61.9134 284.345 61.8909 284.413 61.8534C284.532 61.7859 284.764 61.5909 285.101 61.2684V61.7184C284.465 62.5209 283.859 62.9259 283.275 62.9259C282.998 62.9259 282.773 62.8359 282.608 62.6484C282.459 62.4909 282.376 62.1834 282.369 61.7409ZM282.369 61.2159V58.4034C281.508 58.7259 280.954 58.9509 280.707 59.0859C280.258 59.3259 279.936 59.5659 279.741 59.8284C279.547 60.0834 279.449 60.3684 279.449 60.6759C279.449 61.0659 279.569 61.3809 279.816 61.6359C280.063 61.8909 280.34 62.0184 280.662 62.0184C281.096 62.0259 281.665 61.7559 282.369 61.2159Z" fill="white"/>
<path d="M288.208 51.3454V61.1329C288.208 61.5979 288.245 61.8979 288.313 62.0479C288.38 62.1979 288.492 62.3104 288.642 62.3929C288.792 62.4679 289.069 62.5129 289.466 62.5129V62.8054H285.64V62.5129C286 62.5129 286.239 62.4754 286.374 62.4079C286.509 62.3404 286.606 62.2204 286.681 62.0629C286.756 61.9054 286.793 61.5904 286.793 61.1329V54.4279C286.793 53.5954 286.771 53.0854 286.733 52.8904C286.696 52.7029 286.628 52.5679 286.539 52.5004C286.449 52.4329 286.336 52.3954 286.202 52.3954C286.052 52.3954 285.865 52.4404 285.64 52.5229L285.498 52.2379L287.826 51.3379H288.208V51.3454Z" fill="white"/>
<path d="M292.88 51.3454V61.1329C292.88 61.5979 292.917 61.8979 292.985 62.0479C293.052 62.1979 293.164 62.3104 293.314 62.3929C293.464 62.4679 293.741 62.5129 294.137 62.5129V62.8054H290.312V62.5129C290.671 62.5129 290.911 62.4754 291.046 62.4079C291.181 62.3404 291.278 62.2204 291.353 62.0629C291.428 61.9054 291.465 61.5904 291.465 61.1329V54.4279C291.465 53.5954 291.443 53.0854 291.405 52.8904C291.368 52.7029 291.3 52.5679 291.21 52.5004C291.121 52.4329 291.008 52.3954 290.874 52.3954C290.724 52.3954 290.537 52.4404 290.312 52.5229L290.17 52.2379L292.498 51.3379H292.88V51.3454Z" fill="white"/>
<path d="M301.713 55.4252V59.8952C301.713 60.7502 301.736 61.2677 301.781 61.4627C301.825 61.6502 301.893 61.7852 301.983 61.8602C302.072 61.9352 302.185 61.9727 302.312 61.9727C302.492 61.9727 302.686 61.9277 302.911 61.8377L303.031 62.1227L300.695 63.0302H300.313V61.4702C299.64 62.1602 299.131 62.5877 298.779 62.7677C298.427 62.9477 298.053 63.0302 297.663 63.0302C297.229 63.0302 296.847 62.9102 296.525 62.6702C296.204 62.4302 295.979 62.1227 295.859 61.7477C295.739 61.3727 295.672 60.8402 295.672 60.1502V56.8577C295.672 56.5052 295.635 56.2652 295.552 56.1302C295.47 55.9952 295.358 55.8902 295.2 55.8227C295.043 55.7477 294.759 55.7177 294.354 55.7252V55.4252H297.094V60.3602C297.094 61.0502 297.222 61.5002 297.476 61.7102C297.731 61.9202 298.038 62.0327 298.389 62.0327C298.636 62.0327 298.913 61.9577 299.22 61.8152C299.527 61.6727 299.902 61.3952 300.321 60.9827V56.7977C300.321 56.3777 300.238 56.0927 300.081 55.9502C299.917 55.8002 299.58 55.7252 299.071 55.7102V55.4102H301.713V55.4252Z" fill="white"/>
<path d="M305.711 55.2087V56.8662C306.362 55.7562 307.036 55.2087 307.725 55.2087C308.039 55.2087 308.294 55.2987 308.503 55.4787C308.705 55.6587 308.81 55.8687 308.81 56.1012C308.81 56.3112 308.735 56.4912 308.585 56.6337C308.436 56.7762 308.264 56.8512 308.054 56.8512C307.852 56.8512 307.635 56.7612 307.388 56.5737C307.141 56.3862 306.954 56.2962 306.841 56.2962C306.736 56.2962 306.632 56.3487 306.512 56.4537C306.257 56.6712 305.988 57.0387 305.718 57.5412V61.0812C305.718 61.4862 305.771 61.8012 305.883 62.0112C305.958 62.1537 306.085 62.2737 306.272 62.3712C306.459 62.4687 306.729 62.5137 307.081 62.5137V62.8062H303.083V62.5137C303.48 62.5137 303.779 62.4537 303.967 62.3337C304.109 62.2512 304.206 62.1087 304.266 61.9212C304.296 61.8312 304.311 61.5687 304.311 61.1412V58.2837C304.311 57.4212 304.296 56.9112 304.259 56.7462C304.221 56.5812 304.154 56.4612 304.056 56.3862C303.959 56.3112 303.832 56.2737 303.682 56.2737C303.503 56.2737 303.308 56.3112 303.083 56.3937L303.001 56.1012L305.359 55.2012H305.711V55.2087Z" fill="white"/>
<path d="M310.839 60.112C310.359 59.8945 309.993 59.587 309.738 59.1895C309.484 58.792 309.356 58.357 309.356 57.877C309.356 57.1495 309.648 56.5195 310.232 55.9945C310.816 55.4695 311.557 55.207 312.471 55.207C313.212 55.207 313.863 55.3795 314.402 55.7245H316.056C316.303 55.7245 316.446 55.732 316.483 55.747C316.52 55.762 316.55 55.7845 316.565 55.8145C316.603 55.8595 316.618 55.9495 316.618 56.0695C316.618 56.212 316.603 56.3095 316.573 56.362C316.558 56.392 316.528 56.407 316.483 56.4295C316.438 56.4445 316.296 56.452 316.049 56.452H315.031C315.353 56.842 315.51 57.3295 315.51 57.937C315.51 58.627 315.233 59.212 314.671 59.6995C314.117 60.187 313.369 60.4345 312.426 60.4345C312.036 60.4345 311.647 60.382 311.243 60.277C310.996 60.4795 310.824 60.6595 310.734 60.8095C310.644 60.967 310.599 61.0945 310.599 61.1995C310.599 61.2895 310.644 61.3795 310.741 61.462C310.839 61.5445 311.018 61.612 311.288 61.6495C311.445 61.672 311.842 61.687 312.478 61.7095C313.646 61.7395 314.409 61.777 314.754 61.822C315.285 61.8895 315.704 62.077 316.019 62.377C316.333 62.677 316.49 63.052 316.49 63.487C316.49 64.0945 316.191 64.6645 315.585 65.197C314.701 65.9845 313.541 66.3745 312.119 66.3745C311.026 66.3745 310.097 66.142 309.341 65.677C308.915 65.407 308.705 65.1295 308.705 64.837C308.705 64.7095 308.735 64.582 308.802 64.447C308.9 64.252 309.094 63.9745 309.401 63.6145C309.439 63.5695 309.731 63.277 310.27 62.7445C309.978 62.5795 309.768 62.4295 309.641 62.2945C309.521 62.1595 309.454 62.0095 309.454 61.8445C309.454 61.657 309.536 61.4395 309.701 61.1845C309.88 60.9295 310.255 60.577 310.839 60.112ZM310.749 62.8045C310.479 63.082 310.277 63.337 310.142 63.5695C310.008 63.8095 309.94 64.027 309.94 64.222C309.94 64.477 310.105 64.702 310.434 64.897C311.003 65.227 311.827 65.3995 312.897 65.3995C313.923 65.3995 314.671 65.227 315.158 64.8895C315.645 64.5445 315.884 64.1845 315.884 63.7945C315.884 63.517 315.742 63.3145 315.45 63.202C315.15 63.082 314.567 63.0145 313.691 62.992C312.426 62.9545 311.437 62.8945 310.749 62.8045ZM312.321 55.5895C311.902 55.5895 311.55 55.747 311.265 56.062C310.981 56.377 310.839 56.8645 310.839 57.517C310.839 58.3645 311.033 59.0245 311.415 59.4895C311.707 59.842 312.089 60.022 312.538 60.022C312.972 60.022 313.324 59.872 313.601 59.5645C313.878 59.257 314.02 58.777 314.02 58.1245C314.02 57.2695 313.825 56.602 313.429 56.122C313.144 55.7695 312.777 55.5895 312.321 55.5895Z" fill="white"/>
<path d="M319.994 55.2082V61.1407C319.994 61.6057 320.032 61.9132 320.099 62.0632C320.166 62.2207 320.271 62.3332 320.413 62.4082C320.556 62.4832 320.81 62.5207 321.177 62.5207V62.8132H317.381V62.5207C317.763 62.5207 318.018 62.4832 318.145 62.4157C318.272 62.3482 318.377 62.2282 318.459 62.0707C318.542 61.9132 318.572 61.5982 318.572 61.1407V58.2982C318.572 57.4957 318.549 56.9782 318.497 56.7457C318.459 56.5732 318.392 56.4532 318.31 56.3857C318.227 56.3182 318.108 56.2882 317.958 56.2882C317.801 56.2882 317.606 56.3257 317.381 56.4082L317.262 56.1157L319.612 55.2157H319.994V55.2082ZM319.29 51.3457C319.53 51.3457 319.732 51.4282 319.897 51.5857C320.061 51.7432 320.151 51.9382 320.151 52.1632C320.151 52.3882 320.069 52.5832 319.897 52.7407C319.732 52.8982 319.522 52.9807 319.29 52.9807C319.051 52.9807 318.849 52.8982 318.677 52.7407C318.504 52.5832 318.422 52.3882 318.422 52.1632C318.422 51.9382 318.504 51.7432 318.677 51.5857C318.841 51.4282 319.043 51.3457 319.29 51.3457Z" fill="white"/>
<path d="M328.61 59.9995C328.401 60.9745 327.989 61.717 327.375 62.242C326.761 62.767 326.08 63.0295 325.339 63.0295C324.456 63.0295 323.677 62.677 323.018 61.972C322.36 61.267 322.03 60.3145 322.03 59.122C322.03 57.9595 322.397 57.022 323.123 56.2945C323.849 55.567 324.733 55.207 325.751 55.207C326.514 55.207 327.151 55.402 327.645 55.7845C328.139 56.167 328.386 56.5645 328.386 56.977C328.386 57.1795 328.318 57.3445 328.176 57.472C328.034 57.5995 327.839 57.6595 327.592 57.6595C327.255 57.6595 327.001 57.5545 326.836 57.352C326.739 57.2395 326.679 57.022 326.642 56.707C326.604 56.392 326.492 56.1445 326.297 55.9795C326.095 55.822 325.826 55.7395 325.474 55.7395C324.905 55.7395 324.448 55.9345 324.104 56.332C323.64 56.857 323.415 57.5545 323.415 58.417C323.415 59.2945 323.647 60.0745 324.104 60.7495C324.561 61.4245 325.182 61.762 325.96 61.762C326.514 61.762 327.016 61.582 327.458 61.222C327.772 60.9745 328.071 60.5245 328.371 59.8795L328.61 59.9995Z" fill="white"/>
<path d="M333.977 61.7409C333.176 62.3259 332.675 62.6634 332.465 62.7534C332.158 62.8884 331.829 62.9559 331.484 62.9559C330.945 62.9559 330.496 62.7834 330.152 62.4309C329.808 62.0784 329.628 61.6209 329.628 61.0509C329.628 60.6909 329.71 60.3759 329.882 60.1134C330.115 59.7459 330.519 59.4009 331.095 59.0784C331.672 58.7559 332.63 58.3659 333.97 57.9009V57.6084C333.97 56.8734 333.843 56.3709 333.595 56.0934C333.348 55.8159 332.989 55.6809 332.518 55.6809C332.158 55.6809 331.874 55.7709 331.664 55.9584C331.447 56.1384 331.342 56.3484 331.342 56.5884L331.357 57.0534C331.357 57.3009 331.29 57.4884 331.155 57.6234C331.02 57.7584 330.848 57.8259 330.631 57.8259C330.421 57.8259 330.249 57.7584 330.115 57.6159C329.98 57.4734 329.912 57.2859 329.912 57.0459C329.912 56.5809 330.159 56.1609 330.661 55.7709C331.163 55.3809 331.866 55.1934 332.765 55.1934C333.461 55.1934 334.03 55.3059 334.471 55.5234C334.808 55.6884 335.055 55.9509 335.212 56.3034C335.317 56.5359 335.37 57.0084 335.37 57.7209V60.2259C335.37 60.9309 335.385 61.3584 335.415 61.5159C335.445 61.6734 335.489 61.7784 335.557 61.8309C335.624 61.8834 335.699 61.9134 335.781 61.9134C335.871 61.9134 335.954 61.8909 336.021 61.8534C336.141 61.7859 336.373 61.5909 336.71 61.2684V61.7184C336.073 62.5209 335.467 62.9259 334.883 62.9259C334.606 62.9259 334.382 62.8359 334.217 62.6484C334.067 62.4909 333.985 62.1834 333.977 61.7409ZM333.977 61.2159V58.4034C333.116 58.7259 332.562 58.9509 332.315 59.0859C331.866 59.3259 331.544 59.5659 331.35 59.8284C331.155 60.0834 331.058 60.3684 331.058 60.6759C331.058 61.0659 331.178 61.3809 331.425 61.6359C331.672 61.8909 331.949 62.0184 332.27 62.0184C332.705 62.0259 333.274 61.7559 333.977 61.2159Z" fill="white"/>
<path d="M339.809 51.3454V61.1329C339.809 61.5979 339.846 61.8979 339.913 62.0479C339.981 62.1979 340.093 62.3104 340.243 62.3929C340.392 62.4679 340.669 62.5129 341.066 62.5129V62.8054H337.241V62.5129C337.6 62.5129 337.84 62.4754 337.974 62.4079C338.109 62.3404 338.207 62.2204 338.281 62.0629C338.356 61.9054 338.394 61.5904 338.394 61.1329V54.4279C338.394 53.5954 338.371 53.0854 338.334 52.8904C338.296 52.7029 338.229 52.5679 338.139 52.5004C338.049 52.4329 337.937 52.3954 337.802 52.3954C337.653 52.3954 337.465 52.4404 337.241 52.5229L337.099 52.2379L339.427 51.3379H339.809V51.3454Z" fill="white"/>
<path d="M356.158 51.6309L356.458 55.0809H356.158C355.859 54.2184 355.469 53.5734 354.99 53.1384C354.302 52.5084 353.418 52.1934 352.34 52.1934C350.866 52.1934 349.75 52.7409 348.979 53.8434C348.335 54.7734 348.013 55.8759 348.013 57.1659C348.013 58.2084 348.23 59.1609 348.65 60.0159C349.069 60.8709 349.638 61.5084 350.327 61.9059C351.015 62.3034 351.726 62.5059 352.453 62.5059C352.879 62.5059 353.291 62.4534 353.688 62.3559C354.084 62.2584 354.466 62.1009 354.841 61.9059V58.7484C354.841 58.2009 354.796 57.8409 354.706 57.6759C354.616 57.5034 354.481 57.3759 354.294 57.2859C354.107 57.1959 353.785 57.1509 353.321 57.1509V56.8434H357.798V57.1509H357.588C357.146 57.1509 356.839 57.2934 356.675 57.5709C356.562 57.7659 356.502 58.1634 356.502 58.7484V62.0934C355.851 62.4234 355.2 62.6709 354.571 62.8284C353.935 62.9859 353.224 63.0609 352.453 63.0609C350.222 63.0609 348.522 62.3859 347.362 61.0284C346.494 60.0159 346.06 58.8384 346.06 57.5184C346.06 56.5584 346.307 55.6359 346.793 54.7584C347.37 53.7084 348.171 52.9059 349.181 52.3434C350.027 51.8784 351.03 51.6459 352.183 51.6459C352.602 51.6459 352.984 51.6759 353.328 51.7434C353.673 51.8109 354.159 51.9534 354.788 52.1709C355.11 52.2834 355.32 52.3434 355.424 52.3434C355.529 52.3434 355.627 52.2984 355.701 52.2009C355.776 52.1109 355.829 51.9234 355.844 51.6459H356.158V51.6309Z" fill="white"/>
<path d="M360.71 55.2087V56.8662C361.361 55.7562 362.035 55.2087 362.724 55.2087C363.038 55.2087 363.293 55.2987 363.502 55.4787C363.704 55.6587 363.809 55.8687 363.809 56.1012C363.809 56.3112 363.734 56.4912 363.585 56.6337C363.435 56.7762 363.263 56.8512 363.053 56.8512C362.851 56.8512 362.634 56.7612 362.387 56.5737C362.14 56.3862 361.953 56.2962 361.84 56.2962C361.735 56.2962 361.631 56.3487 361.511 56.4537C361.256 56.6712 360.987 57.0387 360.717 57.5412V61.0812C360.717 61.4862 360.77 61.8012 360.882 62.0112C360.957 62.1537 361.084 62.2737 361.271 62.3712C361.459 62.4687 361.728 62.5137 362.08 62.5137V62.8062H358.082V62.5137C358.479 62.5137 358.779 62.4537 358.966 62.3337C359.108 62.2512 359.205 62.1087 359.265 61.9212C359.295 61.8312 359.31 61.5687 359.31 61.1412V58.2837C359.31 57.4212 359.295 56.9112 359.258 56.7462C359.22 56.5812 359.153 56.4612 359.056 56.3862C358.958 56.3112 358.831 56.2737 358.681 56.2737C358.502 56.2737 358.307 56.3112 358.082 56.3937L358 56.1012L360.358 55.2012H360.71V55.2087Z" fill="white"/>
<path d="M367.881 55.207C369.064 55.207 370.015 55.6345 370.726 56.482C371.332 57.2095 371.639 58.042 371.639 58.9795C371.639 59.6395 371.475 60.307 371.138 60.982C370.801 61.657 370.344 62.167 369.753 62.512C369.161 62.857 368.51 63.0295 367.791 63.0295C366.616 63.0295 365.68 62.587 364.984 61.702C364.4 60.952 364.108 60.1195 364.108 59.1895C364.108 58.5145 364.288 57.8395 364.64 57.172C364.992 56.5045 365.463 56.0095 366.04 55.687C366.616 55.3645 367.238 55.207 367.881 55.207ZM367.619 55.732C367.32 55.732 367.013 55.8145 366.713 55.987C366.407 56.1595 366.167 56.452 365.972 56.8795C365.785 57.307 365.688 57.847 365.688 58.5145C365.688 59.587 365.913 60.517 366.369 61.297C366.826 62.077 367.417 62.467 368.158 62.467C368.712 62.467 369.161 62.2495 369.521 61.822C369.88 61.3945 370.06 60.652 370.06 59.6095C370.06 58.297 369.76 57.2695 369.161 56.5195C368.757 55.987 368.241 55.732 367.619 55.732Z" fill="white"/>
<path d="M379.462 55.4252V59.8952C379.462 60.7502 379.485 61.2677 379.53 61.4627C379.574 61.6502 379.642 61.7852 379.732 61.8602C379.822 61.9352 379.934 61.9727 380.061 61.9727C380.241 61.9727 380.435 61.9277 380.66 61.8377L380.78 62.1227L378.444 63.0302H378.062V61.4702C377.389 62.1602 376.88 62.5877 376.528 62.7677C376.176 62.9477 375.802 63.0302 375.412 63.0302C374.978 63.0302 374.596 62.9102 374.274 62.6702C373.953 62.4302 373.728 62.1227 373.608 61.7477C373.488 61.3727 373.421 60.8402 373.421 60.1502V56.8577C373.421 56.5052 373.384 56.2652 373.301 56.1302C373.219 55.9952 373.107 55.8902 372.949 55.8227C372.792 55.7477 372.508 55.7177 372.104 55.7252V55.4252H374.843V60.3602C374.843 61.0502 374.971 61.5002 375.225 61.7102C375.48 61.9202 375.787 62.0327 376.138 62.0327C376.385 62.0327 376.662 61.9577 376.969 61.8152C377.276 61.6727 377.651 61.3952 378.07 60.9827V56.7977C378.07 56.3777 377.987 56.0927 377.83 55.9502C377.666 55.8002 377.329 55.7252 376.82 55.7102V55.4102H379.462V55.4252Z" fill="white"/>
<path d="M380.607 56.1598L383.01 55.2448H383.332V56.9698C383.737 56.3173 384.141 55.8673 384.545 55.6048C384.949 55.3423 385.376 55.2148 385.825 55.2148C386.611 55.2148 387.262 55.5073 387.786 56.0848C388.43 56.7973 388.752 57.7198 388.752 58.8598C388.752 60.1348 388.363 61.1848 387.592 62.0173C386.956 62.6998 386.154 63.0373 385.189 63.0373C384.77 63.0373 384.403 62.9773 384.096 62.8648C383.871 62.7823 383.609 62.6248 383.332 62.3848V64.6348C383.332 65.1373 383.362 65.4598 383.43 65.5948C383.497 65.7298 383.609 65.8423 383.774 65.9248C383.939 66.0073 384.231 66.0448 384.657 66.0448V66.3448H380.562V66.0448H380.78C381.094 66.0523 381.356 65.9923 381.581 65.8723C381.685 65.8123 381.775 65.7148 381.835 65.5873C381.895 65.4523 381.925 65.1223 381.925 64.5823V57.6073C381.925 57.1273 381.902 56.8273 381.858 56.6998C381.813 56.5723 381.738 56.4748 381.64 56.4073C381.543 56.3398 381.408 56.3098 381.236 56.3098C381.101 56.3098 380.929 56.3473 380.72 56.4223L380.607 56.1598ZM383.34 57.4348V60.1873C383.34 60.7798 383.362 61.1773 383.415 61.3648C383.497 61.6798 383.692 61.9498 383.999 62.1898C384.305 62.4298 384.695 62.5423 385.174 62.5423C385.743 62.5423 386.199 62.3323 386.551 61.9123C387.008 61.3648 387.24 60.5923 387.24 59.6023C387.24 58.4773 386.978 57.6073 386.454 56.9998C386.087 56.5798 385.66 56.3698 385.159 56.3698C384.889 56.3698 384.62 56.4373 384.35 56.5648C384.148 56.6623 383.804 56.9548 383.34 57.4348Z" fill="white"/>
</g>
<defs>
<clipPath id="clip0_179_2">
<rect width="394" height="75" fill="white"/>
</clipPath>
</defs>
</svg>
