<svg width="127" height="125" viewBox="0 0 127 125" fill="none" xmlns="http://www.w3.org/2000/svg">
<path d="M124.437 77.25L108.812 104.313C105.75 109.688 100.063 112.5 94.3125 112.125H81.8125V124.625L66.1875 96.5L81.8125 68.375V80.875H99.4375L85.5625 56.8125L112.625 41.1875L123.875 60.6875C127.125 65.5 127.562 71.9375 124.437 77.25ZM45.625 0H76.875C83 0 88.3125 3.5625 90.875 8.6875L97.125 19.5625L107.938 13.3125L91.4375 40.875L59.25 41.4375L70.0625 35.1875L61.25 19.875L47.4375 43.9375L20.3125 28.3125L31.5625 8.8125C34.125 3.625 39.4375 0 45.625 0ZM19.625 104.375L4 77.3125C0.9375 72 1.375 65.625 4.5625 60.8125L10.8125 50L0 43.75L32.125 44.25L48.6875 71.875L37.875 65.625L29.0625 80.875H56.8125V112.125H34.3125C31.3844 112.337 28.4556 111.723 25.8591 110.353C23.2627 108.983 21.1028 106.912 19.625 104.375Z" fill="white"/>
</svg>
