<svg width="479" height="102" viewBox="0 0 479 102" fill="none" xmlns="http://www.w3.org/2000/svg">
<path fill-rule="evenodd" clip-rule="evenodd" d="M54.1328 44.4016H28.6614L54.1328 72.7031V44.4016Z" fill="#060D26"/>
<path fill-rule="evenodd" clip-rule="evenodd" d="M88.8672 72.7031V44.4016H114.339L88.8672 72.7031Z" fill="#060D26"/>
<path d="M130 27H88.8672H71.5L88.8672 35.7008V44.4016H114.339L130 27Z" fill="#CDC9C9"/>
<path d="M13 27L28.6614 44.4016H54.1328V35.7008L71.5 27H54.1328H13Z" fill="#CDC9C9"/>
<path d="M130 27L114.339 9H71.5H28.6614L13 27H54.1328H71.5H88.8672H130Z" fill="white"/>
<path d="M71.5 27V82.3516V92L75.8418 87.1758L80.1836 82.3516L88.8672 72.7031V44.4016V35.7008L71.5 27Z" fill="white"/>
<path d="M71.5 82.3516V27L54.1328 35.7008V44.4016V72.7031L62.8164 82.3516L71.5 92V82.3516Z" fill="white"/>
<path d="M71.5 92V27M71.5 92L62.8164 82.3516L54.1328 72.7031M71.5 92V82.3516V27M71.5 92L75.8418 87.1758L80.1836 82.3516L88.8672 72.7031M130 27L114.339 9H71.5H28.6614L13 27M130 27H88.8672H71.5M130 27L114.339 44.4016M71.5 27L54.1328 35.7008V44.4016M71.5 27L88.8672 35.7008V44.4016M71.5 27H54.1328H13M13 27L28.6614 44.4016M28.6614 44.4016L54.1328 72.7031M28.6614 44.4016H54.1328M54.1328 72.7031V44.4016M88.8672 72.7031V44.4016M88.8672 72.7031L114.339 44.4016M88.8672 44.4016H114.339" stroke="#060D26" stroke-width="2.5"/>
<path d="M163.123 27.3599V50.0999C163.123 50.5574 163.228 50.8949 163.43 51.1349C163.633 51.3749 163.999 51.5624 164.523 51.7049V52.4099H155.181V51.7049C155.705 51.5549 156.072 51.3674 156.274 51.1349C156.476 50.9024 156.581 50.5574 156.581 50.0999V27.3599H147.283C146.842 27.3599 146.505 27.4574 146.273 27.6599C146.041 27.8624 145.846 28.2299 145.704 28.7624H145V21.0074H145.704C145.861 21.5399 146.056 21.9074 146.288 22.1099C146.52 22.3124 146.849 22.4099 147.283 22.4099H172.391C172.848 22.4099 173.185 22.3124 173.424 22.1099C173.664 21.9074 173.851 21.5399 173.993 21.0074H174.697V28.7624H173.993C173.843 28.2299 173.656 27.8549 173.424 27.6599C173.192 27.4574 172.848 27.3599 172.391 27.3599H163.123Z" fill="white"/>
<path d="M189.444 39.2475V47.4675H208.698C209.14 47.4675 209.477 47.3625 209.709 47.16C209.941 46.9575 210.135 46.59 210.278 46.065H210.981V53.8125H210.278C210.128 53.2875 209.941 52.92 209.709 52.7175C209.477 52.515 209.14 52.41 208.698 52.41H181.509V51.705C182.033 51.555 182.4 51.3675 182.602 51.135C182.804 50.9025 182.909 50.5575 182.909 50.1V24.72C182.909 24.27 182.804 23.925 182.602 23.685C182.4 23.4525 182.033 23.2575 181.509 23.115V22.41H208.174C208.616 22.41 208.952 22.305 209.185 22.095C209.417 21.885 209.611 21.525 209.753 21H210.457V28.7625H209.753C209.604 28.245 209.417 27.8775 209.185 27.6675C208.952 27.4575 208.616 27.3525 208.174 27.3525H189.444V34.47H201.594C202.035 34.47 202.372 34.365 202.604 34.1625C202.836 33.96 203.031 33.5925 203.173 33.0675H203.877V40.65H203.173C203.024 40.14 202.836 39.7725 202.604 39.5625C202.372 39.3525 202.035 39.2475 201.594 39.2475H189.444Z" fill="white"/>
<path d="M248.463 42.105L252.633 48.3525L252.064 48.75C251.652 48.3675 251.315 48.18 251.053 48.18C250.791 48.18 250.05 48.5325 248.837 49.2375C246.322 50.6925 244.204 51.675 242.489 52.1775C240.775 52.68 238.731 52.935 236.358 52.935C231.635 52.935 227.765 51.8175 224.733 49.575C222.951 48.27 221.544 46.65 220.526 44.7225C219.343 42.51 218.751 40.0725 218.751 37.4025C218.751 33.7725 219.814 30.615 221.933 27.93C225.122 23.9025 229.935 21.885 236.388 21.885C238.754 21.885 240.79 22.1325 242.482 22.635C244.181 23.13 246.3 24.1125 248.845 25.5825C250.058 26.2725 250.799 26.6175 251.061 26.6175C251.323 26.6175 251.66 26.43 252.071 26.0475L252.64 26.445L248.471 32.7075L247.879 32.31C247.909 32.0775 247.924 31.8825 247.924 31.7175C247.924 31.2975 247.745 30.9 247.378 30.525C247.011 30.15 246.36 29.7075 245.424 29.175C242.834 27.7125 240.094 26.985 237.197 26.985C233.776 26.985 231.051 27.84 229.015 29.55C226.619 31.5525 225.421 34.1775 225.421 37.41C225.421 40.6425 226.619 43.26 229.015 45.27C231.043 46.98 233.776 47.835 237.197 47.835C240.094 47.835 242.834 47.1 245.424 45.6375C246.36 45.1125 247.011 44.6625 247.378 44.2875C247.745 43.9125 247.924 43.515 247.924 43.0875C247.924 42.93 247.909 42.735 247.879 42.5175L248.463 42.105Z" fill="white"/>
<path d="M285.706 39.3075H268.443V50.115C268.443 50.5575 268.548 50.895 268.757 51.135C268.967 51.375 269.334 51.5625 269.843 51.6975V52.4025H260.5V51.6975C261.025 51.5475 261.391 51.36 261.593 51.1275C261.796 50.895 261.9 50.5575 261.9 50.115V24.69C261.9 24.2475 261.796 23.91 261.593 23.6775C261.391 23.445 261.025 23.25 260.5 23.1075V22.4025H269.843V23.1075C269.319 23.2425 268.952 23.4225 268.75 23.67C268.548 23.9175 268.443 24.255 268.443 24.69V34.3575H285.706V24.6975C285.706 24.255 285.601 23.9175 285.399 23.6775C285.197 23.4375 284.83 23.25 284.306 23.115V22.41H293.648V23.115C293.124 23.265 292.757 23.4525 292.555 23.685C292.353 23.9175 292.248 24.255 292.248 24.6975V50.1225C292.248 50.565 292.353 50.9025 292.555 51.135C292.757 51.3675 293.124 51.5625 293.648 51.705V52.41H284.306V51.705C284.815 51.57 285.182 51.39 285.391 51.1425C285.601 50.895 285.706 50.5575 285.706 50.1225V39.3075Z" fill="white"/>
<path d="M310.799 39.2475V47.4675H330.052C330.494 47.4675 330.831 47.3625 331.063 47.16C331.295 46.9575 331.49 46.59 331.632 46.065H332.336V53.8125H331.632C331.482 53.2875 331.295 52.92 331.063 52.7175C330.831 52.515 330.494 52.41 330.052 52.41H302.856V51.705C303.38 51.555 303.747 51.3675 303.949 51.135C304.151 50.9025 304.256 50.5575 304.256 50.1V24.72C304.256 24.27 304.151 23.925 303.949 23.685C303.747 23.4525 303.38 23.2575 302.856 23.115V22.41H329.521C329.963 22.41 330.299 22.305 330.531 22.095C330.764 21.885 330.958 21.525 331.1 21H331.804V28.7625H331.1C330.951 28.245 330.764 27.8775 330.531 27.6675C330.299 27.4575 329.963 27.3525 329.521 27.3525H310.791V34.47H322.941C323.382 34.47 323.719 34.365 323.951 34.1625C324.183 33.96 324.378 33.5925 324.52 33.0675H325.224V40.65H324.52C324.371 40.14 324.183 39.7725 323.951 39.5625C323.719 39.3525 323.382 39.2475 322.941 39.2475H310.799Z" fill="white"/>
<path d="M359.233 52.41L348.191 31.6875V50.1C348.191 50.5575 348.296 50.895 348.498 51.135C348.7 51.375 349.067 51.5625 349.591 51.705V52.41H340.795V51.705C341.319 51.555 341.686 51.3675 341.888 51.135C342.09 50.9025 342.195 50.5575 342.195 50.1V24.6975C342.195 24.255 342.09 23.9175 341.888 23.685C341.686 23.4525 341.319 23.2575 340.795 23.115V22.41H352.338V23.115C351.649 23.2875 351.305 23.6925 351.305 24.3225C351.305 24.615 351.41 24.9525 351.612 25.335L359.779 40.8375L368.058 25.5975C368.425 24.9225 368.605 24.435 368.605 24.1275C368.605 23.5275 368.238 23.19 367.512 23.115V22.41H378.831V23.115C378.307 23.265 377.94 23.4525 377.738 23.685C377.536 23.9175 377.431 24.255 377.431 24.6975V50.1C377.431 50.5575 377.536 50.895 377.738 51.135C377.94 51.375 378.307 51.5625 378.831 51.705V52.41H369.488V51.705C369.997 51.57 370.364 51.39 370.574 51.1425C370.783 50.895 370.888 50.55 370.888 50.1V31.6875L359.233 52.41Z" fill="white"/>
<path d="M395.959 39.2475V47.4675H415.213C415.654 47.4675 415.991 47.3625 416.223 47.16C416.455 46.9575 416.65 46.59 416.792 46.065H417.496V53.8125H416.792C416.642 53.2875 416.455 52.92 416.223 52.7175C415.991 52.515 415.654 52.41 415.213 52.41H388.016V51.705C388.54 51.555 388.907 51.3675 389.109 51.135C389.311 50.9025 389.416 50.5575 389.416 50.1V24.72C389.416 24.27 389.311 23.925 389.109 23.685C388.907 23.4525 388.54 23.2575 388.016 23.115V22.41H414.681C415.123 22.41 415.46 22.305 415.692 22.095C415.924 21.885 416.118 21.525 416.261 21H416.964V28.7625H416.268C416.118 28.245 415.931 27.8775 415.699 27.6675C415.467 27.4575 415.13 27.3525 414.689 27.3525H395.959V34.47H408.108C408.55 34.47 408.887 34.365 409.119 34.1625C409.351 33.96 409.546 33.5925 409.688 33.0675H410.392V40.65H409.688C409.538 40.14 409.351 39.7725 409.119 39.5625C408.887 39.3525 408.55 39.2475 408.108 39.2475H395.959Z" fill="white"/>
<path d="M441.69 27.3599V50.0999C441.69 50.5574 441.795 50.8949 441.997 51.1349C442.199 51.3749 442.566 51.5624 443.09 51.7049V52.4099H433.748V51.7049C434.272 51.5549 434.639 51.3674 434.841 51.1349C435.043 50.9024 435.148 50.5574 435.148 50.0999V27.3599H425.85C425.408 27.3599 425.072 27.4574 424.84 27.6599C424.607 27.8624 424.413 28.2299 424.271 28.7624H423.567V21.0074H424.271C424.428 21.5399 424.622 21.9074 424.854 22.1099C425.087 22.3124 425.416 22.4099 425.85 22.4099H450.958C451.415 22.4099 451.751 22.3124 451.991 22.1099C452.231 21.9074 452.418 21.5399 452.56 21.0074H453.264V28.7624H452.56C452.41 28.2299 452.223 27.8549 451.991 27.6599C451.759 27.4574 451.415 27.3599 450.958 27.3599H441.69Z" fill="white"/>
<path d="M150.651 65.2705L150.572 67.5645H149.643C149.643 67.1777 149.634 66.8657 149.616 66.6284C149.599 66.3911 149.542 66.2065 149.445 66.0747C149.353 65.9429 149.206 65.855 149.003 65.811C148.801 65.7627 148.518 65.7341 148.153 65.7253H146.907V73.0884C146.907 73.5894 146.945 73.897 147.019 74.0112C147.098 74.1211 147.191 74.1914 147.296 74.2222C147.402 74.2485 147.505 74.2617 147.606 74.2617C147.711 74.2617 147.812 74.2595 147.909 74.2551C148.006 74.2463 148.109 74.2354 148.219 74.2222C148.513 74.1958 148.689 74.1738 148.746 74.1562L148.667 75L143.605 74.9934L143.657 74.2617C144.088 74.2617 144.422 74.2485 144.659 74.2222C144.901 74.1958 145.079 74.1387 145.193 74.0508C145.312 73.9585 145.385 73.8267 145.411 73.6553C145.437 73.4795 145.45 73.2422 145.45 72.9434V65.7253H144.416C143.686 65.7429 143.194 65.877 142.939 66.1274C142.688 66.3735 142.532 66.8525 142.471 67.5645H141.548C141.588 67.2129 141.638 66.8481 141.7 66.4702C141.761 66.0879 141.807 65.7891 141.838 65.5737L141.93 64.9146H150.638C150.647 64.9629 150.651 65.0156 150.651 65.0728V65.2705ZM155.688 73.9717C156.558 73.9146 157.324 73.7058 157.988 73.3455L158.278 73.8992C157.615 74.4485 156.859 74.8242 156.01 75.0264C155.756 75.0835 155.523 75.1121 155.312 75.1121C153.655 75.1121 152.611 74.3804 152.181 72.917C152.04 72.4468 151.97 71.8997 151.97 71.2756C151.97 70.6472 152.071 70.0693 152.273 69.542C152.479 69.0146 152.75 68.5664 153.084 68.1973C153.422 67.8237 153.809 67.5359 154.244 67.3337C154.679 67.1316 155.129 67.0305 155.595 67.0305C157.463 67.0305 158.397 68.0984 158.397 70.2341V70.3C158.397 70.8582 158.331 71.1372 158.199 71.1372H153.347C153.347 72.0557 153.55 72.7544 153.954 73.2334C154.363 73.7124 154.94 73.9585 155.688 73.9717ZM156.894 70.2935C156.898 70.2012 156.9 70.1309 156.9 70.0825V69.865C156.9 68.8323 156.615 68.1973 156.043 67.96C155.837 67.8721 155.615 67.8281 155.378 67.8281C155.145 67.8281 154.947 67.8633 154.784 67.9336C154.622 68.0039 154.468 68.1006 154.323 68.2236C154.182 68.3467 154.053 68.4917 153.934 68.6587C153.815 68.8213 153.712 69.0015 153.624 69.1992C153.44 69.6079 153.347 70.0254 153.347 70.4517L156.894 70.2935ZM163.861 73.9321C164.573 73.9321 165.296 73.7322 166.03 73.3323L166.281 73.8662C166.07 74.1035 165.786 74.3188 165.43 74.5122C164.688 74.9121 164.042 75.1121 163.492 75.1121C162.947 75.1121 162.455 75.0286 162.016 74.8616C161.581 74.6902 161.203 74.4463 160.882 74.1299C160.209 73.4619 159.873 72.5676 159.873 71.447C159.873 70.0847 160.28 68.9927 161.093 68.1709C161.844 67.4106 162.787 67.0305 163.921 67.0305C164.54 67.0305 165.16 67.125 165.78 67.314L165.958 67.3667C166.015 67.3843 166.065 67.3975 166.109 67.4062C166.144 67.4766 166.162 67.6348 166.162 67.8809C166.162 68.127 166.155 68.3203 166.142 68.4609C166.133 68.5972 166.12 68.729 166.103 68.8564C166.089 68.9839 166.074 69.0981 166.056 69.1992L166.017 69.4365C165.99 69.4805 165.854 69.5024 165.608 69.5024C165.309 69.5024 165.114 69.4827 165.021 69.4431C165.021 68.9202 164.956 68.5642 164.824 68.3752C164.696 68.1819 164.534 68.0413 164.336 67.9534C164.143 67.8655 163.885 67.8215 163.565 67.8215C163.248 67.8215 162.954 67.8896 162.681 68.0259C162.409 68.1577 162.169 68.3555 161.963 68.6191C161.515 69.1992 161.291 69.9858 161.291 70.979C161.291 72.3984 161.77 73.3125 162.728 73.7212C163.048 73.8618 163.426 73.9321 163.861 73.9321ZM169.721 68.217C170.657 67.426 171.594 67.0305 172.53 67.0305C173.505 67.0305 174.153 67.4678 174.474 68.3423C174.58 68.6367 174.632 68.9707 174.632 69.3442C174.632 69.7178 174.626 70.0803 174.613 70.4319C174.599 70.7834 174.584 71.1372 174.566 71.4932C174.492 73.0005 174.472 73.8201 174.507 73.9519C174.542 74.0793 174.58 74.165 174.619 74.209C174.72 74.3232 175.026 74.3298 175.535 74.2288L175.456 75H172.075L172.167 74.3013C172.681 74.3013 172.995 74.1167 173.11 73.7476C173.219 73.3564 173.279 72.8643 173.288 72.271C173.301 71.6777 173.307 71.2317 173.307 70.9329C173.307 70.6296 173.303 70.3879 173.294 70.2078C173.29 70.0232 173.274 69.8408 173.248 69.6606C173.226 69.4761 173.187 69.2981 173.129 69.1267C173.077 68.9509 173.002 68.7971 172.905 68.6653C172.694 68.3708 172.396 68.2236 172.009 68.2236C171.38 68.2236 170.756 68.4126 170.137 68.7905L169.721 69.0344V73.6289C169.721 73.897 169.754 74.0684 169.82 74.1431C169.917 74.2485 170.025 74.3013 170.143 74.3013C170.469 74.3013 170.723 74.2771 170.908 74.2288L170.802 75H167.368L167.474 74.3013C167.882 74.3013 168.146 74.1782 168.265 73.9321C168.357 73.7344 168.403 73.3059 168.403 72.6467V66.0022C168.403 65.5496 168.344 65.2507 168.225 65.1057C168.089 64.9695 167.783 64.9014 167.309 64.9014H167.144L167.223 64.1499L169.866 63.761C169.77 64.1829 169.721 65.3035 169.721 67.1228V68.217ZM176.682 74.3013C177.047 74.3013 177.291 74.209 177.414 74.0244C177.555 73.8135 177.625 73.3784 177.625 72.7192V69.5354C177.625 69.0081 177.561 68.6587 177.434 68.4873C177.306 68.3115 177.012 68.2236 176.551 68.2236L176.656 67.3931L179.016 67.0371C178.968 67.3931 178.943 67.771 178.943 68.1709C179.506 67.7095 180.095 67.3755 180.71 67.1689C180.974 67.0767 181.246 67.0305 181.527 67.0305C181.809 67.0305 182.081 67.0723 182.345 67.1558C182.613 67.2393 182.846 67.3755 183.043 67.5645C183.479 67.9731 183.696 68.5818 183.696 69.3904C183.696 69.8826 183.681 70.3638 183.65 70.834C183.566 72.2446 183.54 73.1038 183.571 73.4114C183.606 73.719 183.646 73.9233 183.689 74.0244C183.773 74.209 183.922 74.3013 184.138 74.3013C184.344 74.3013 184.531 74.2749 184.698 74.2222L184.599 75H181.224L181.343 74.3013C181.708 74.3013 181.958 74.2222 182.094 74.064C182.151 73.998 182.193 73.908 182.219 73.7937C182.25 73.675 182.274 73.5256 182.292 73.3455C182.314 73.1653 182.332 72.9478 182.345 72.6929C182.371 72.1743 182.384 71.5876 182.384 70.9329C182.384 70.2737 182.371 69.7947 182.345 69.4958C182.323 69.1926 182.266 68.9487 182.173 68.7642C181.998 68.4038 181.611 68.2236 181.013 68.2236C180.459 68.2236 179.875 68.4126 179.26 68.7905L178.943 68.9817V73.4114C178.943 73.8069 178.974 74.0464 179.036 74.1299C179.097 74.2134 179.167 74.2639 179.247 74.2815C179.326 74.2947 179.414 74.3013 179.51 74.3013C179.734 74.3013 179.943 74.2771 180.136 74.2288L180.024 75H176.577L176.682 74.3013ZM187.849 65.7319C187.726 65.7803 187.592 65.8044 187.447 65.8044C187.302 65.8044 187.166 65.7803 187.038 65.7319C186.911 65.6792 186.801 65.6089 186.708 65.521C186.506 65.3364 186.405 65.1365 186.405 64.9211C186.405 64.7014 186.432 64.5278 186.484 64.4004C186.537 64.2729 186.612 64.1631 186.708 64.0708C186.911 63.873 187.159 63.7742 187.453 63.7742C187.739 63.7742 187.979 63.873 188.172 64.0708C188.361 64.2686 188.455 64.5168 188.455 64.8157C188.455 65.2595 188.253 65.5649 187.849 65.7319ZM188.35 67.0239C188.152 67.5952 188.053 68.7202 188.053 70.3989L188.099 73.4707C188.099 73.7388 188.141 73.9453 188.225 74.0903C188.308 74.231 188.475 74.3013 188.726 74.3013C188.928 74.3013 189.108 74.2749 189.266 74.2222L189.174 75H185.634L185.753 74.3013C186.183 74.3013 186.476 74.1826 186.629 73.9453C186.757 73.7432 186.821 73.407 186.821 72.9368V69.4893C186.821 68.9399 186.724 68.584 186.531 68.4214C186.377 68.2896 186.038 68.2236 185.515 68.2236L185.621 67.3931L188.35 67.0239ZM194.236 73.9321C194.948 73.9321 195.671 73.7322 196.405 73.3323L196.656 73.8662C196.445 74.1035 196.161 74.3188 195.805 74.5122C195.062 74.9121 194.417 75.1121 193.867 75.1121C193.322 75.1121 192.83 75.0286 192.391 74.8616C191.956 74.6902 191.578 74.4463 191.257 74.1299C190.584 73.4619 190.248 72.5676 190.248 71.447C190.248 70.0847 190.655 68.9927 191.468 68.1709C192.219 67.4106 193.162 67.0305 194.296 67.0305C194.915 67.0305 195.535 67.125 196.155 67.314L196.333 67.3667C196.39 67.3843 196.44 67.3975 196.484 67.4062C196.519 67.4766 196.537 67.6348 196.537 67.8809C196.537 68.127 196.53 68.3203 196.517 68.4609C196.508 68.5972 196.495 68.729 196.478 68.8564C196.464 68.9839 196.449 69.0981 196.431 69.1992L196.392 69.4365C196.365 69.4805 196.229 69.5024 195.983 69.5024C195.684 69.5024 195.489 69.4827 195.396 69.4431C195.396 68.9202 195.331 68.5642 195.199 68.3752C195.071 68.1819 194.909 68.0413 194.711 67.9534C194.518 67.8655 194.26 67.8215 193.94 67.8215C193.623 67.8215 193.329 67.8896 193.056 68.0259C192.784 68.1577 192.544 68.3555 192.338 68.6191C191.89 69.1992 191.666 69.9858 191.666 70.979C191.666 72.3984 192.145 73.3125 193.103 73.7212C193.423 73.8618 193.801 73.9321 194.236 73.9321ZM204.091 69.2585L203.986 72.7588C203.986 73.229 204.128 73.5674 204.414 73.7739C204.612 73.9189 204.865 73.9915 205.172 73.9915C205.155 74.2156 205.064 74.4177 204.902 74.5979C204.616 74.9143 204.383 75.0967 204.203 75.145C203.931 75.145 203.674 75.0527 203.432 74.8682C203.195 74.6836 203.01 74.4133 202.878 74.0574C202.377 74.532 201.764 74.8682 201.039 75.0659C200.837 75.123 200.6 75.1516 200.327 75.1516C200.059 75.1516 199.771 75.1011 199.464 75C199.16 74.8945 198.906 74.7473 198.699 74.5583C198.281 74.176 198.073 73.6553 198.073 72.9961C198.073 72.1963 198.521 71.5745 199.417 71.1306C200.252 70.7175 201.351 70.511 202.713 70.511H202.786C202.786 70.2341 202.781 69.9639 202.773 69.7002L202.766 69.4365C202.744 68.9048 202.553 68.5005 202.193 68.2236C201.907 68.0039 201.555 67.894 201.138 67.894C200.72 67.894 200.384 68.0061 200.129 68.2302C199.875 68.45 199.747 68.7686 199.747 69.186C199.747 69.3398 199.765 69.5046 199.8 69.6804H198.62L198.574 69.6672C198.561 69.5969 198.547 69.5222 198.534 69.4431C198.495 69.2542 198.462 69.0586 198.435 68.8564C198.413 68.6499 198.402 68.5137 198.402 68.4478C198.402 68.3511 198.42 68.2808 198.455 68.2368C199.593 67.4326 200.707 67.0305 201.797 67.0305C202.861 67.0305 203.562 67.4172 203.9 68.1907C204.027 68.4763 204.091 68.8323 204.091 69.2585ZM202.713 73.0159C202.744 72.4622 202.766 71.8689 202.779 71.2361C202.731 71.2185 202.584 71.2097 202.338 71.2097C202.096 71.2097 201.788 71.2493 201.415 71.3284C201.046 71.4031 200.723 71.5129 200.446 71.658C199.857 71.97 199.562 72.3875 199.562 72.9104C199.562 73.2751 199.681 73.5806 199.918 73.8267C200.16 74.0728 200.472 74.1958 200.854 74.1958C201.329 74.1958 201.817 73.9827 202.318 73.5564C202.467 73.429 202.599 73.2949 202.713 73.1543V73.0159ZM208.376 63.761C208.283 64.24 208.237 65.2024 208.237 66.6482V67.1228L208.25 73.4312C208.25 73.7915 208.277 74.0156 208.33 74.1035C208.413 74.2354 208.56 74.3013 208.771 74.3013C209.066 74.3013 209.323 74.2771 209.542 74.2288L209.437 75H205.62L205.732 74.3013C206.189 74.3013 206.482 74.2507 206.609 74.1497C206.741 74.0486 206.824 73.9453 206.86 73.8398C206.899 73.73 206.919 73.5959 206.919 73.4377V66.0022C206.919 65.6287 206.895 65.3958 206.846 65.3035C206.802 65.2112 206.761 65.1431 206.721 65.0991C206.686 65.0508 206.629 65.0134 206.55 64.9871C206.475 64.9563 206.387 64.9365 206.286 64.9277C206.146 64.9102 205.913 64.9014 205.587 64.9014L205.667 64.1499L208.376 63.761ZM211.151 75.145C210.874 75.1099 210.67 75.0022 210.538 74.822C210.406 74.6375 210.34 74.4529 210.34 74.2683C210.34 74.0793 210.369 73.9211 210.426 73.7937C210.483 73.6619 210.562 73.5454 210.663 73.4443C210.883 73.2246 211.14 73.1147 211.434 73.1147C211.746 73.1147 212.001 73.2356 212.199 73.4773C212.397 73.7146 212.496 73.9783 212.496 74.2683C212.496 74.5583 212.458 74.8154 212.384 75.0396C212.309 75.2681 212.212 75.4878 212.094 75.6987C211.979 75.9097 211.852 76.1074 211.711 76.292C211.571 76.481 211.432 76.6436 211.296 76.7798C211.006 77.083 210.81 77.2346 210.709 77.2346C210.472 77.2346 210.261 77.127 210.076 76.9116L210.366 76.5952C210.881 76.0151 211.142 75.5317 211.151 75.145ZM228.276 72.304C228.285 72.3918 228.29 72.5039 228.29 72.6401C228.29 72.772 228.281 72.9258 228.263 73.1016C228.25 73.2729 228.232 73.4399 228.21 73.6025C228.153 73.9717 228.096 74.2354 228.039 74.3936C227.099 74.8638 225.877 75.0989 224.374 75.0989C222.968 75.0989 221.768 74.7275 220.775 73.9849C220.05 73.4443 219.542 72.6863 219.252 71.7107C219.103 71.2097 219.028 70.6011 219.028 69.8848C219.028 69.1641 219.167 68.4851 219.443 67.8479C219.72 67.2063 220.107 66.6614 220.604 66.2131C221.636 65.2815 222.977 64.8157 224.625 64.8157C224.932 64.8157 225.334 64.8442 225.831 64.9014C226.327 64.9585 226.653 64.9937 226.806 65.0068L227.255 65.053C227.593 65.0837 227.815 65.0991 227.92 65.0991H228.131C228.162 65.0991 228.21 65.0947 228.276 65.0859C228.285 65.1914 228.29 65.4397 228.29 65.8308C228.29 66.2219 228.219 66.8789 228.079 67.8018H227.235C227.151 67.1382 227.046 66.679 226.918 66.4241C226.554 65.8396 225.756 65.5474 224.526 65.5474C223.295 65.5474 222.335 65.9517 221.645 66.7603C220.986 67.5293 220.656 68.5466 220.656 69.8123C220.656 71.2756 221.069 72.4204 221.896 73.2466C222.651 74.0024 223.574 74.3804 224.664 74.3804C225.451 74.3804 226.048 74.231 226.457 73.9321C226.87 73.6289 227.202 73.0862 227.452 72.304H228.276ZM232.133 68.217C233.069 67.426 234.005 67.0305 234.941 67.0305C235.916 67.0305 236.564 67.4678 236.885 68.3423C236.991 68.6367 237.043 68.9707 237.043 69.3442C237.043 69.7178 237.037 70.0803 237.024 70.4319C237.01 70.7834 236.995 71.1372 236.978 71.4932C236.903 73.0005 236.883 73.8201 236.918 73.9519C236.953 74.0793 236.991 74.165 237.03 74.209C237.131 74.3232 237.437 74.3298 237.947 74.2288L237.867 75H234.486L234.578 74.3013C235.092 74.3013 235.406 74.1167 235.521 73.7476C235.631 73.3564 235.69 72.8643 235.699 72.271C235.712 71.6777 235.719 71.2317 235.719 70.9329C235.719 70.6296 235.714 70.3879 235.705 70.2078C235.701 70.0232 235.686 69.8408 235.659 69.6606C235.637 69.4761 235.598 69.2981 235.541 69.1267C235.488 68.9509 235.413 68.7971 235.316 68.6653C235.105 68.3708 234.807 68.2236 234.42 68.2236C233.792 68.2236 233.167 68.4126 232.548 68.7905L232.133 69.0344V73.6289C232.133 73.897 232.166 74.0684 232.231 74.1431C232.328 74.2485 232.436 74.3013 232.554 74.3013C232.88 74.3013 233.135 74.2771 233.319 74.2288L233.214 75H229.779L229.885 74.3013C230.293 74.3013 230.557 74.1782 230.676 73.9321C230.768 73.7344 230.814 73.3059 230.814 72.6467V66.0022C230.814 65.5496 230.755 65.2507 230.636 65.1057C230.5 64.9695 230.195 64.9014 229.72 64.9014H229.555L229.634 64.1499L232.278 63.761C232.181 64.1829 232.133 65.3035 232.133 67.1228V68.217ZM242.844 73.9717C243.714 73.9146 244.481 73.7058 245.145 73.3455L245.435 73.8992C244.771 74.4485 244.015 74.8242 243.167 75.0264C242.912 75.0835 242.679 75.1121 242.469 75.1121C240.812 75.1121 239.768 74.3804 239.337 72.917C239.197 72.4468 239.126 71.8997 239.126 71.2756C239.126 70.6472 239.228 70.0693 239.43 69.542C239.636 69.0146 239.906 68.5664 240.24 68.1973C240.579 67.8237 240.966 67.5359 241.401 67.3337C241.836 67.1316 242.286 67.0305 242.752 67.0305C244.62 67.0305 245.553 68.0984 245.553 70.2341V70.3C245.553 70.8582 245.488 71.1372 245.356 71.1372H240.504C240.504 72.0557 240.706 72.7544 241.111 73.2334C241.519 73.7124 242.097 73.9585 242.844 73.9717ZM244.051 70.2935C244.055 70.2012 244.057 70.1309 244.057 70.0825V69.865C244.057 68.8323 243.771 68.1973 243.2 67.96C242.994 67.8721 242.772 67.8281 242.534 67.8281C242.302 67.8281 242.104 67.8633 241.941 67.9336C241.779 68.0039 241.625 68.1006 241.48 68.2236C241.339 68.3467 241.209 68.4917 241.091 68.6587C240.972 68.8213 240.869 69.0015 240.781 69.1992C240.596 69.6079 240.504 70.0254 240.504 70.4517L244.051 70.2935ZM251.222 68.2104C250.739 68.2104 250.133 68.4631 249.403 68.9685V73.4114C249.403 73.8025 249.438 74.042 249.509 74.1299C249.579 74.2134 249.654 74.2639 249.733 74.2815C249.816 74.2947 249.906 74.3013 250.003 74.3013C250.161 74.3013 250.361 74.2771 250.603 74.2288L250.504 75H247.043L247.149 74.3013C247.505 74.3013 247.753 74.1826 247.894 73.9453C248.039 73.7036 248.111 73.2949 248.111 72.7192V69.4563C248.111 69.0037 248.043 68.6631 247.907 68.4346C247.771 68.2588 247.474 68.1709 247.017 68.1709L247.116 67.3931L249.528 67.0371L249.476 67.3997C249.44 67.6941 249.423 67.9468 249.423 68.1577L249.785 67.894C250.198 67.5908 250.598 67.3711 250.985 67.2349C251.372 67.0986 251.701 67.0305 251.974 67.0305C252.923 67.0305 253.562 67.4194 253.892 68.1973C254.446 67.7183 255.019 67.3755 255.613 67.1689C255.867 67.0767 256.135 67.0305 256.417 67.0305C256.702 67.0305 256.975 67.0789 257.234 67.1755C257.498 67.2722 257.724 67.4172 257.913 67.6106C258.317 68.0237 258.52 68.6125 258.52 69.3772C258.52 69.8606 258.506 70.3396 258.48 70.8142C258.396 72.1897 258.37 73.0488 258.401 73.3916C258.432 73.7344 258.462 73.9541 258.493 74.0508C258.555 74.2178 258.662 74.3013 258.816 74.3013C259.031 74.3013 259.26 74.2771 259.502 74.2288L259.409 75H256.146L256.259 74.3013C256.562 74.3013 256.775 74.2288 256.898 74.0837C257.021 73.9299 257.098 73.4993 257.129 72.7917C257.159 72.0842 257.175 71.3965 257.175 70.7285C257.175 70.0605 257.155 69.5881 257.115 69.3113C257.08 69.0344 257.01 68.8147 256.905 68.6521C256.716 68.3621 256.318 68.217 255.711 68.217C255.263 68.217 254.716 68.4368 254.07 68.8762C254.092 69.074 254.103 69.2783 254.103 69.4893C254.103 69.832 254.085 70.2583 254.05 70.7681C253.932 72.627 253.949 73.7212 254.103 74.0508C254.182 74.2178 254.332 74.3013 254.551 74.3013C254.771 74.3013 254.991 74.2771 255.21 74.2288L255.105 75H251.618L251.73 74.3013C252.125 74.3013 252.385 74.2419 252.508 74.1233C252.64 74.0002 252.714 73.5476 252.732 72.7654C252.745 72.3259 252.752 71.7173 252.752 70.9395C252.752 70.1572 252.732 69.6233 252.692 69.3376C252.657 69.052 252.587 68.8257 252.481 68.6587C252.288 68.3599 251.868 68.2104 251.222 68.2104ZM262.653 65.7319C262.53 65.7803 262.396 65.8044 262.25 65.8044C262.105 65.8044 261.969 65.7803 261.842 65.7319C261.714 65.6792 261.604 65.6089 261.512 65.521C261.31 65.3364 261.209 65.1365 261.209 64.9211C261.209 64.7014 261.235 64.5278 261.288 64.4004C261.341 64.2729 261.416 64.1631 261.512 64.0708C261.714 63.873 261.963 63.7742 262.257 63.7742C262.543 63.7742 262.782 63.873 262.976 64.0708C263.165 64.2686 263.259 64.5168 263.259 64.8157C263.259 65.2595 263.057 65.5649 262.653 65.7319ZM263.154 67.0239C262.956 67.5952 262.857 68.7202 262.857 70.3989L262.903 73.4707C262.903 73.7388 262.945 73.9453 263.028 74.0903C263.112 74.231 263.279 74.3013 263.529 74.3013C263.731 74.3013 263.912 74.2749 264.07 74.2222L263.978 75H260.438L260.556 74.3013C260.987 74.3013 261.279 74.1826 261.433 73.9453C261.561 73.7432 261.624 73.407 261.624 72.9368V69.4893C261.624 68.9399 261.528 68.584 261.334 68.4214C261.18 68.2896 260.842 68.2236 260.319 68.2236L260.425 67.3931L263.154 67.0239ZM269.04 73.9321C269.752 73.9321 270.475 73.7322 271.209 73.3323L271.459 73.8662C271.248 74.1035 270.965 74.3188 270.609 74.5122C269.866 74.9121 269.22 75.1121 268.671 75.1121C268.126 75.1121 267.634 75.0286 267.194 74.8616C266.759 74.6902 266.381 74.4463 266.061 74.1299C265.388 73.4619 265.052 72.5676 265.052 71.447C265.052 70.0847 265.458 68.9927 266.271 68.1709C267.023 67.4106 267.966 67.0305 269.099 67.0305C269.719 67.0305 270.339 67.125 270.958 67.314L271.136 67.3667C271.193 67.3843 271.244 67.3975 271.288 67.4062C271.323 67.4766 271.341 67.6348 271.341 67.8809C271.341 68.127 271.334 68.3203 271.321 68.4609C271.312 68.5972 271.299 68.729 271.281 68.8564C271.268 68.9839 271.253 69.0981 271.235 69.1992L271.196 69.4365C271.169 69.4805 271.033 69.5024 270.787 69.5024C270.488 69.5024 270.292 69.4827 270.2 69.4431C270.2 68.9202 270.134 68.5642 270.002 68.3752C269.875 68.1819 269.712 68.0413 269.515 67.9534C269.321 67.8655 269.064 67.8215 268.743 67.8215C268.427 67.8215 268.133 67.8896 267.86 68.0259C267.588 68.1577 267.348 68.3555 267.142 68.6191C266.693 69.1992 266.469 69.9858 266.469 70.979C266.469 72.3984 266.948 73.3125 267.906 73.7212C268.227 73.8618 268.605 73.9321 269.04 73.9321ZM278.895 69.2585L278.789 72.7588C278.789 73.229 278.932 73.5674 279.218 73.7739C279.416 73.9189 279.668 73.9915 279.976 73.9915C279.958 74.2156 279.868 74.4177 279.706 74.5979C279.42 74.9143 279.187 75.0967 279.007 75.145C278.734 75.145 278.477 75.0527 278.236 74.8682C277.998 74.6836 277.814 74.4133 277.682 74.0574C277.181 74.532 276.568 74.8682 275.843 75.0659C275.641 75.123 275.403 75.1516 275.131 75.1516C274.863 75.1516 274.575 75.1011 274.267 75C273.964 74.8945 273.709 74.7473 273.503 74.5583C273.085 74.176 272.876 73.6553 272.876 72.9961C272.876 72.1963 273.325 71.5745 274.221 71.1306C275.056 70.7175 276.155 70.511 277.517 70.511H277.59C277.59 70.2341 277.585 69.9639 277.576 69.7002L277.57 69.4365C277.548 68.9048 277.357 68.5005 276.996 68.2236C276.711 68.0039 276.359 67.894 275.942 67.894C275.524 67.894 275.188 68.0061 274.933 68.2302C274.678 68.45 274.551 68.7686 274.551 69.186C274.551 69.3398 274.568 69.5046 274.604 69.6804H273.424L273.377 69.6672C273.364 69.5969 273.351 69.5222 273.338 69.4431C273.298 69.2542 273.265 69.0586 273.239 68.8564C273.217 68.6499 273.206 68.5137 273.206 68.4478C273.206 68.3511 273.224 68.2808 273.259 68.2368C274.397 67.4326 275.511 67.0305 276.601 67.0305C277.664 67.0305 278.365 67.4172 278.704 68.1907C278.831 68.4763 278.895 68.8323 278.895 69.2585ZM277.517 73.0159C277.548 72.4622 277.57 71.8689 277.583 71.2361C277.535 71.2185 277.387 71.2097 277.141 71.2097C276.9 71.2097 276.592 71.2493 276.219 71.3284C275.849 71.4031 275.526 71.5129 275.25 71.658C274.661 71.97 274.366 72.3875 274.366 72.9104C274.366 73.2751 274.485 73.5806 274.722 73.8267C274.964 74.0728 275.276 74.1958 275.658 74.1958C276.133 74.1958 276.621 73.9827 277.122 73.5564C277.271 73.429 277.403 73.2949 277.517 73.1543V73.0159ZM283.179 63.761C283.087 64.24 283.041 65.2024 283.041 66.6482V67.1228L283.054 73.4312C283.054 73.7915 283.081 74.0156 283.133 74.1035C283.217 74.2354 283.364 74.3013 283.575 74.3013C283.869 74.3013 284.126 74.2771 284.346 74.2288L284.241 75H280.424L280.536 74.3013C280.993 74.3013 281.285 74.2507 281.413 74.1497C281.545 74.0486 281.628 73.9453 281.663 73.8398C281.703 73.73 281.723 73.5959 281.723 73.4377V66.0022C281.723 65.6287 281.698 65.3958 281.65 65.3035C281.606 65.2112 281.564 65.1431 281.525 65.0991C281.49 65.0508 281.433 65.0134 281.354 64.9871C281.279 64.9563 281.191 64.9365 281.09 64.9277C280.949 64.9102 280.716 64.9014 280.391 64.9014L280.47 64.1499L283.179 63.761ZM296.284 69.2585L296.178 72.7588C296.178 73.229 296.321 73.5674 296.607 73.7739C296.805 73.9189 297.057 73.9915 297.365 73.9915C297.347 74.2156 297.257 74.4177 297.095 74.5979C296.809 74.9143 296.576 75.0967 296.396 75.145C296.124 75.145 295.866 75.0527 295.625 74.8682C295.387 74.6836 295.203 74.4133 295.071 74.0574C294.57 74.532 293.957 74.8682 293.232 75.0659C293.03 75.123 292.792 75.1516 292.52 75.1516C292.252 75.1516 291.964 75.1011 291.656 75C291.353 74.8945 291.098 74.7473 290.892 74.5583C290.474 74.176 290.266 73.6553 290.266 72.9961C290.266 72.1963 290.714 71.5745 291.61 71.1306C292.445 70.7175 293.544 70.511 294.906 70.511H294.979C294.979 70.2341 294.974 69.9639 294.966 69.7002L294.959 69.4365C294.937 68.9048 294.746 68.5005 294.385 68.2236C294.1 68.0039 293.748 67.894 293.331 67.894C292.913 67.894 292.577 68.0061 292.322 68.2302C292.067 68.45 291.94 68.7686 291.94 69.186C291.94 69.3398 291.958 69.5046 291.993 69.6804H290.813L290.767 69.6672C290.753 69.5969 290.74 69.5222 290.727 69.4431C290.688 69.2542 290.655 69.0586 290.628 68.8564C290.606 68.6499 290.595 68.5137 290.595 68.4478C290.595 68.3511 290.613 68.2808 290.648 68.2368C291.786 67.4326 292.9 67.0305 293.99 67.0305C295.053 67.0305 295.754 67.4172 296.093 68.1907C296.22 68.4763 296.284 68.8323 296.284 69.2585ZM294.906 73.0159C294.937 72.4622 294.959 71.8689 294.972 71.2361C294.924 71.2185 294.777 71.2097 294.531 71.2097C294.289 71.2097 293.981 71.2493 293.608 71.3284C293.239 71.4031 292.916 71.5129 292.639 71.658C292.05 71.97 291.755 72.3875 291.755 72.9104C291.755 73.2751 291.874 73.5806 292.111 73.8267C292.353 74.0728 292.665 74.1958 293.047 74.1958C293.522 74.1958 294.01 73.9827 294.511 73.5564C294.66 73.429 294.792 73.2949 294.906 73.1543V73.0159ZM298.13 74.3013C298.494 74.3013 298.738 74.209 298.861 74.0244C299.002 73.8135 299.072 73.3784 299.072 72.7192V69.5354C299.072 69.0081 299.009 68.6587 298.881 68.4873C298.754 68.3115 298.459 68.2236 297.998 68.2236L298.103 67.3931L300.463 67.0371C300.415 67.3931 300.391 67.771 300.391 68.1709C300.953 67.7095 301.542 67.3755 302.157 67.1689C302.421 67.0767 302.693 67.0305 302.975 67.0305C303.256 67.0305 303.528 67.0723 303.792 67.1558C304.06 67.2393 304.293 67.3755 304.491 67.5645C304.926 67.9731 305.143 68.5818 305.143 69.3904C305.143 69.8826 305.128 70.3638 305.097 70.834C305.014 72.2446 304.987 73.1038 305.018 73.4114C305.053 73.719 305.093 73.9233 305.137 74.0244C305.22 74.209 305.37 74.3013 305.585 74.3013C305.792 74.3013 305.978 74.2749 306.145 74.2222L306.046 75H302.671L302.79 74.3013C303.155 74.3013 303.405 74.2222 303.542 74.064C303.599 73.998 303.64 73.908 303.667 73.7937C303.698 73.675 303.722 73.5256 303.739 73.3455C303.761 73.1653 303.779 72.9478 303.792 72.6929C303.818 72.1743 303.832 71.5876 303.832 70.9329C303.832 70.2737 303.818 69.7947 303.792 69.4958C303.77 69.1926 303.713 68.9487 303.621 68.7642C303.445 68.4038 303.058 68.2236 302.46 68.2236C301.907 68.2236 301.322 68.4126 300.707 68.7905L300.391 68.9817V73.4114C300.391 73.8069 300.421 74.0464 300.483 74.1299C300.544 74.2134 300.615 74.2639 300.694 74.2815C300.773 74.2947 300.861 74.3013 300.958 74.3013C301.182 74.3013 301.39 74.2771 301.584 74.2288L301.472 75H298.024L298.13 74.3013ZM310.028 67.1953C310.362 67.0854 310.749 67.0305 311.188 67.0305C311.632 67.0305 312.082 67.092 312.539 67.2151V67.0833C312.539 66.0461 312.522 65.4749 312.487 65.3694C312.451 65.2595 312.407 65.1804 312.355 65.1321C312.306 65.0837 312.24 65.042 312.157 65.0068C312.078 64.9717 311.99 64.9453 311.893 64.9277C311.77 64.9102 311.557 64.9014 311.254 64.9014H311.129L311.228 64.1499L313.97 63.7676C313.97 63.8071 313.965 63.8401 313.957 63.8665C313.952 63.8928 313.943 63.9543 313.93 64.051C313.917 64.1433 313.904 64.3037 313.891 64.5322C313.855 65.1431 313.838 65.9648 313.838 66.9976V73.0093C313.838 73.3521 313.875 73.5938 313.95 73.7344C314.029 73.875 314.139 73.9453 314.28 73.9453C314.464 73.9453 314.675 73.9036 314.912 73.8201L315.104 73.7607C315.095 73.8135 315.086 73.8882 315.077 73.9849C315.073 74.0771 315.066 74.1738 315.057 74.2749C315.049 74.376 315.042 74.4858 315.038 74.6045L312.968 75.1187C312.919 75.0967 312.851 74.9626 312.763 74.7166C312.68 74.4705 312.623 74.2903 312.592 74.176C312.034 74.5715 311.441 74.8506 310.812 75.0132C310.593 75.0703 310.327 75.0989 310.015 75.0989C309.703 75.0989 309.362 75.0198 308.993 74.8616C308.624 74.7034 308.305 74.4683 308.037 74.1562C307.453 73.4927 307.16 72.5764 307.16 71.4075C307.16 70.6428 307.336 69.9177 307.688 69.2322C308.215 68.1995 308.995 67.5205 310.028 67.1953ZM310.502 73.8926C310.749 73.8838 310.986 73.8552 311.214 73.8069C311.443 73.7585 311.649 73.7036 311.834 73.6421C312.225 73.5146 312.465 73.407 312.552 73.3191L312.539 73.3257V68.5334C312.346 68.2434 311.975 68.0391 311.425 67.9204C311.267 67.8853 311.061 67.8677 310.806 67.8677C310.551 67.8677 310.274 67.927 309.975 68.0457C309.681 68.1599 309.428 68.3489 309.217 68.6125C308.778 69.1619 308.558 70.0232 308.558 71.1965C308.558 71.9875 308.758 72.6445 309.158 73.1675C309.54 73.6641 309.988 73.9058 310.502 73.8926ZM323.225 74.0442C323.273 74.1057 323.341 74.1562 323.429 74.1958C323.517 74.231 323.631 74.2485 323.772 74.2485C323.917 74.2485 324.18 74.2156 324.563 74.1497L324.49 75H320.937L320.977 74.2485C321.35 74.2573 321.599 74.1914 321.722 74.0508C321.928 73.8179 322.212 72.6533 322.572 70.5571L323.178 66.8262C323.209 66.6416 323.225 66.4702 323.225 66.312C323.225 65.8901 323.049 65.6792 322.697 65.6792C322.456 65.6792 322.229 65.7056 322.018 65.7583L322.124 64.9146H325.103C325.169 65.3013 325.301 65.8242 325.499 66.4834C325.934 67.8896 326.261 68.9114 326.481 69.5486C327.039 71.1614 327.437 72.2842 327.674 72.917C328.997 69.0146 329.744 66.7668 329.915 66.1736C330.087 65.5759 330.199 65.1562 330.251 64.9146H333.211L333.112 65.6792C332.682 65.6792 332.409 65.7078 332.295 65.7649C332.185 65.822 332.113 65.8879 332.077 65.9626C332.042 66.0374 332.025 66.1187 332.025 66.2065C332.025 66.3208 332.036 66.4724 332.058 66.6614L332.183 67.5381C332.477 69.6431 332.818 71.5173 333.205 73.1609C333.314 73.5916 333.405 73.8596 333.475 73.9651C333.585 74.1365 333.743 74.2222 333.949 74.2222C334.235 74.2222 334.466 74.198 334.642 74.1497L334.556 75H330.607L330.693 74.3474C331.053 74.3562 331.302 74.3079 331.438 74.2024C331.693 74.009 331.82 73.7168 331.82 73.3257C331.82 73.1631 331.79 72.9082 331.728 72.561L330.693 66.7734L328.828 72.2974C328.538 73.1719 328.27 74.0442 328.023 74.9143C327.821 74.9143 327.496 74.9802 327.048 75.1121L324.161 66.7866C324.082 67.3403 323.994 67.8984 323.897 68.4609C323.686 69.6167 323.543 70.3901 323.469 70.7812C323.394 71.1724 323.332 71.5107 323.284 71.7964C323.174 72.4512 323.119 72.9302 323.119 73.2334C323.119 73.5366 323.126 73.7322 323.139 73.8201C323.152 73.9036 323.181 73.9783 323.225 74.0442ZM339.493 73.9717C340.363 73.9146 341.13 73.7058 341.794 73.3455L342.084 73.8992C341.42 74.4485 340.664 74.8242 339.816 75.0264C339.561 75.0835 339.328 75.1121 339.117 75.1121C337.461 75.1121 336.417 74.3804 335.986 72.917C335.846 72.4468 335.775 71.8997 335.775 71.2756C335.775 70.6472 335.876 70.0693 336.079 69.542C336.285 69.0146 336.555 68.5664 336.889 68.1973C337.228 67.8237 337.615 67.5359 338.05 67.3337C338.485 67.1316 338.935 67.0305 339.401 67.0305C341.269 67.0305 342.202 68.0984 342.202 70.2341V70.3C342.202 70.8582 342.136 71.1372 342.005 71.1372H337.153C337.153 72.0557 337.355 72.7544 337.76 73.2334C338.168 73.7124 338.746 73.9585 339.493 73.9717ZM340.699 70.2935C340.704 70.2012 340.706 70.1309 340.706 70.0825V69.865C340.706 68.8323 340.42 68.1973 339.849 67.96C339.643 67.8721 339.421 67.8281 339.183 67.8281C338.95 67.8281 338.753 67.8633 338.59 67.9336C338.427 68.0039 338.274 68.1006 338.129 68.2236C337.988 68.3467 337.858 68.4917 337.74 68.6587C337.621 68.8213 337.518 69.0015 337.43 69.1992C337.245 69.6079 337.153 70.0254 337.153 70.4517L340.699 70.2935ZM347.99 73.5959L348.28 74.1562C347.845 74.5605 347.289 74.8462 346.612 75.0132C346.397 75.0703 346.171 75.0989 345.933 75.0989C345.696 75.0989 345.476 75.0725 345.274 75.0198C345.076 74.967 344.912 74.877 344.78 74.7495C344.525 74.5034 344.384 74.0662 344.358 73.4377V68.1643H343.211L343.264 67.4919C343.879 67.3821 344.305 67.1514 344.542 66.7998C344.731 66.5186 344.892 65.9626 345.024 65.1321H345.742V67.1558H348.175V68.1643H345.689V72.6731C345.689 73.2224 345.769 73.585 345.927 73.7607C346.059 73.9058 346.333 73.9783 346.751 73.9783C347.168 73.9783 347.581 73.8508 347.99 73.5959ZM355.281 69.2585L355.175 72.7588C355.175 73.229 355.318 73.5674 355.604 73.7739C355.801 73.9189 356.054 73.9915 356.362 73.9915C356.344 74.2156 356.254 74.4177 356.091 74.5979C355.806 74.9143 355.573 75.0967 355.393 75.145C355.12 75.145 354.863 75.0527 354.621 74.8682C354.384 74.6836 354.199 74.4133 354.068 74.0574C353.567 74.532 352.954 74.8682 352.229 75.0659C352.026 75.123 351.789 75.1516 351.517 75.1516C351.249 75.1516 350.961 75.1011 350.653 75C350.35 74.8945 350.095 74.7473 349.888 74.5583C349.471 74.176 349.262 73.6553 349.262 72.9961C349.262 72.1963 349.71 71.5745 350.607 71.1306C351.442 70.7175 352.541 70.511 353.903 70.511H353.975C353.975 70.2341 353.971 69.9639 353.962 69.7002L353.956 69.4365C353.934 68.9048 353.742 68.5005 353.382 68.2236C353.096 68.0039 352.745 67.894 352.327 67.894C351.91 67.894 351.574 68.0061 351.319 68.2302C351.064 68.45 350.937 68.7686 350.937 69.186C350.937 69.3398 350.954 69.5046 350.989 69.6804H349.809L349.763 69.6672C349.75 69.5969 349.737 69.5222 349.724 69.4431C349.684 69.2542 349.651 69.0586 349.625 68.8564C349.603 68.6499 349.592 68.5137 349.592 68.4478C349.592 68.3511 349.609 68.2808 349.645 68.2368C350.783 67.4326 351.897 67.0305 352.987 67.0305C354.05 67.0305 354.751 67.4172 355.089 68.1907C355.217 68.4763 355.281 68.8323 355.281 69.2585ZM353.903 73.0159C353.934 72.4622 353.956 71.8689 353.969 71.2361C353.92 71.2185 353.773 71.2097 353.527 71.2097C353.285 71.2097 352.978 71.2493 352.604 71.3284C352.235 71.4031 351.912 71.5129 351.635 71.658C351.046 71.97 350.752 72.3875 350.752 72.9104C350.752 73.2751 350.871 73.5806 351.108 73.8267C351.35 74.0728 351.662 74.1958 352.044 74.1958C352.519 74.1958 353.006 73.9827 353.507 73.5564C353.657 73.429 353.789 73.2949 353.903 73.1543V73.0159ZM359.565 63.761C359.473 64.24 359.427 65.2024 359.427 66.6482V67.1228L359.44 73.4312C359.44 73.7915 359.466 74.0156 359.519 74.1035C359.603 74.2354 359.75 74.3013 359.961 74.3013C360.255 74.3013 360.512 74.2771 360.732 74.2288L360.626 75H356.81L356.922 74.3013C357.379 74.3013 357.671 74.2507 357.799 74.1497C357.93 74.0486 358.014 73.9453 358.049 73.8398C358.089 73.73 358.108 73.5959 358.108 73.4377V66.0022C358.108 65.6287 358.084 65.3958 358.036 65.3035C357.992 65.2112 357.95 65.1431 357.911 65.0991C357.875 65.0508 357.818 65.0134 357.739 64.9871C357.665 64.9563 357.577 64.9365 357.476 64.9277C357.335 64.9102 357.102 64.9014 356.777 64.9014L356.856 64.1499L359.565 63.761ZM364.074 63.761C363.982 64.24 363.936 65.2024 363.936 66.6482V67.1228L363.949 73.4312C363.949 73.7915 363.975 74.0156 364.028 74.1035C364.111 74.2354 364.259 74.3013 364.469 74.3013C364.764 74.3013 365.021 74.2771 365.241 74.2288L365.135 75H361.319L361.431 74.3013C361.888 74.3013 362.18 74.2507 362.307 74.1497C362.439 74.0486 362.523 73.9453 362.558 73.8398C362.597 73.73 362.617 73.5959 362.617 73.4377V66.0022C362.617 65.6287 362.593 65.3958 362.545 65.3035C362.501 65.2112 362.459 65.1431 362.419 65.0991C362.384 65.0508 362.327 65.0134 362.248 64.9871C362.173 64.9563 362.085 64.9365 361.984 64.9277C361.844 64.9102 361.611 64.9014 361.286 64.9014L361.365 64.1499L364.074 63.761ZM373.942 73.8003L373.995 73.7937H374.028L374.008 74.6111L372.07 75.1121C371.881 74.8176 371.756 74.4727 371.694 74.0771C371.219 74.4727 370.598 74.7803 369.829 75C369.565 75.0747 369.292 75.1121 369.011 75.1121C368.734 75.1121 368.458 75.0659 368.181 74.9736C367.908 74.8813 367.671 74.7407 367.469 74.5518C367.042 74.1519 366.829 73.5674 366.829 72.7983L366.882 69.074C366.882 68.6345 366.814 68.3511 366.678 68.2236C366.577 68.1313 366.368 68.0698 366.052 68.0391L366.15 67.3931L368.418 67.0239L368.286 68.25C368.194 69.0938 368.148 70.377 368.148 72.0996C368.148 72.8027 368.247 73.2949 368.444 73.5762C368.638 73.8618 368.98 74.0046 369.473 74.0046C369.917 74.0046 370.301 73.9409 370.626 73.8135C371.145 73.6025 371.472 73.4136 371.608 73.2466L371.595 73.2532V69.1399C371.595 68.6785 371.505 68.3818 371.325 68.25C371.184 68.1401 370.87 68.0808 370.382 68.072L370.481 67.3931L373.032 67.0239C373.019 67.2524 373.006 67.4502 372.993 67.6172L372.966 68.0588C372.958 68.2039 372.949 68.3357 372.94 68.4543C372.931 68.5686 372.925 68.6895 372.92 68.8169C372.911 69.0718 372.907 69.4167 372.907 69.8518V72.9895C372.907 73.4114 372.942 73.6685 373.012 73.7607C373.087 73.853 373.155 73.9036 373.217 73.9124C373.283 73.9211 373.353 73.9255 373.428 73.9255H373.487C373.623 73.9255 373.775 73.8838 373.942 73.8003ZM377.501 74.1233C377.567 74.2024 377.653 74.2529 377.759 74.2749C377.868 74.2925 378.095 74.3013 378.438 74.3013C378.78 74.3013 379.048 74.2749 379.242 74.2222L379.196 75H374.95L375.043 74.3013C375.429 74.3013 375.678 74.2332 375.788 74.0969C375.985 73.8508 376.084 73.4158 376.084 72.7917V69.6145C376.084 69.0212 376.023 68.6543 375.9 68.5137C375.763 68.3555 375.465 68.2632 375.003 68.2368L375.095 67.3931L377.462 67.0371C377.418 67.3579 377.396 67.7249 377.396 68.1379C377.857 67.6985 378.398 67.3667 379.018 67.1426C379.237 67.0679 379.446 67.0305 379.644 67.0305C380.488 67.0305 380.909 67.4062 380.909 68.1577C380.909 68.6016 380.846 69.0784 380.718 69.5881C380.709 69.6233 380.703 69.6475 380.698 69.6606C380.694 69.6694 380.692 69.676 380.692 69.6804H379.591L379.631 69.3706L379.657 69.1069C379.666 69.0234 379.67 68.9355 379.67 68.8433C379.67 68.751 379.661 68.6587 379.644 68.5664C379.631 68.4741 379.602 68.3972 379.558 68.3357C379.479 68.217 379.345 68.1577 379.156 68.1577C378.967 68.1577 378.787 68.1863 378.615 68.2434C378.448 68.3005 378.286 68.3687 378.128 68.4478C377.807 68.6147 377.559 68.7861 377.383 68.9619L377.396 68.9553L377.403 73.3784C377.403 73.7959 377.436 74.0442 377.501 74.1233ZM384.291 72.4556C384.014 72.6753 383.876 72.8643 383.876 73.0225C383.876 73.1763 383.904 73.2927 383.961 73.3718C384.023 73.4465 384.115 73.5081 384.238 73.5564C384.396 73.6179 384.788 73.6838 385.412 73.7542L386.044 73.8333C386.923 73.9431 387.552 74.1167 387.93 74.354C388.409 74.6572 388.648 75.1055 388.648 75.6987C388.648 76.5073 388.325 77.1643 387.679 77.6697C387.038 78.1663 386.198 78.4146 385.161 78.4146C383.61 78.4146 382.59 78.0586 382.103 77.3467C381.949 77.1182 381.872 76.8787 381.872 76.6282C381.872 76.3777 381.907 76.1536 381.977 75.9558C382.052 75.7625 382.155 75.5823 382.287 75.4153C382.564 75.0681 382.929 74.8022 383.381 74.6177C382.863 74.3848 382.604 74.0793 382.604 73.7014C382.604 73.3103 382.799 72.917 383.19 72.5215C383.296 72.4116 383.399 72.3259 383.5 72.2644C382.691 71.9656 382.199 71.3965 382.023 70.5571C381.971 70.3198 381.944 70.054 381.944 69.7595C381.944 69.4651 382.03 69.1487 382.201 68.8103C382.377 68.4675 382.621 68.1643 382.933 67.9006C383.627 67.3206 384.495 67.0305 385.537 67.0305C386.02 67.0305 386.469 67.1272 386.882 67.3206L388.951 67.0239V68.1445L387.87 68.1643C388.138 68.5598 388.272 69.0125 388.272 69.5222C388.272 70.032 388.171 70.4626 387.969 70.8142C387.771 71.1658 387.512 71.4624 387.191 71.7041C386.532 72.2139 385.781 72.4688 384.937 72.4688C384.788 72.4688 384.658 72.4688 384.548 72.4688C384.443 72.4688 384.357 72.4644 384.291 72.4556ZM385.214 71.6777C385.482 71.6777 385.719 71.6404 385.926 71.5657C386.137 71.4866 386.319 71.3701 386.473 71.2163C386.798 70.8999 386.961 70.4583 386.961 69.8914C386.961 69.2981 386.8 68.8213 386.479 68.4609C386.141 68.0786 385.68 67.8875 385.095 67.8875C384.563 67.8875 384.155 67.9973 383.869 68.217C383.478 68.5115 383.282 69.0212 383.282 69.7463C383.282 70.2605 383.467 70.7065 383.836 71.0845C384.223 71.48 384.682 71.6777 385.214 71.6777ZM384.1 74.822C383.542 75.1472 383.263 75.6262 383.263 76.259C383.263 76.6677 383.46 76.9907 383.856 77.228C384.234 77.4521 384.673 77.5642 385.174 77.5642C385.68 77.5642 386.073 77.5312 386.354 77.4653C386.635 77.3994 386.866 77.3071 387.046 77.1885C387.394 76.9644 387.567 76.6479 387.567 76.2393C387.567 75.8086 387.341 75.5054 386.888 75.3296C386.572 75.2021 385.866 75.0637 384.772 74.9143L384.1 74.822ZM391.944 65.7319C391.821 65.7803 391.687 65.8044 391.542 65.8044C391.397 65.8044 391.261 65.7803 391.133 65.7319C391.006 65.6792 390.896 65.6089 390.804 65.521C390.602 65.3364 390.5 65.1365 390.5 64.9211C390.5 64.7014 390.527 64.5278 390.58 64.4004C390.632 64.2729 390.707 64.1631 390.804 64.0708C391.006 63.873 391.254 63.7742 391.549 63.7742C391.834 63.7742 392.074 63.873 392.267 64.0708C392.456 64.2686 392.551 64.5168 392.551 64.8157C392.551 65.2595 392.348 65.5649 391.944 65.7319ZM392.445 67.0239C392.247 67.5952 392.148 68.7202 392.148 70.3989L392.195 73.4707C392.195 73.7388 392.236 73.9453 392.32 74.0903C392.403 74.231 392.57 74.3013 392.821 74.3013C393.023 74.3013 393.203 74.2749 393.361 74.2222L393.269 75H389.729L389.848 74.3013C390.279 74.3013 390.571 74.1826 390.725 73.9453C390.852 73.7432 390.916 73.407 390.916 72.9368V69.4893C390.916 68.9399 390.819 68.584 390.626 68.4214C390.472 68.2896 390.134 68.2236 389.611 68.2236L389.716 67.3931L392.445 67.0239ZM398.332 73.9321C399.043 73.9321 399.766 73.7322 400.5 73.3323L400.751 73.8662C400.54 74.1035 400.256 74.3188 399.9 74.5122C399.158 74.9121 398.512 75.1121 397.962 75.1121C397.417 75.1121 396.925 75.0286 396.486 74.8616C396.051 74.6902 395.673 74.4463 395.352 74.1299C394.68 73.4619 394.344 72.5676 394.344 71.447C394.344 70.0847 394.75 68.9927 395.563 68.1709C396.314 67.4106 397.257 67.0305 398.391 67.0305C399.01 67.0305 399.63 67.125 400.25 67.314L400.428 67.3667C400.485 67.3843 400.535 67.3975 400.579 67.4062C400.615 67.4766 400.632 67.6348 400.632 67.8809C400.632 68.127 400.625 68.3203 400.612 68.4609C400.604 68.5972 400.59 68.729 400.573 68.8564C400.56 68.9839 400.544 69.0981 400.527 69.1992L400.487 69.4365C400.461 69.4805 400.324 69.5024 400.078 69.5024C399.78 69.5024 399.584 69.4827 399.492 69.4431C399.492 68.9202 399.426 68.5642 399.294 68.3752C399.167 68.1819 399.004 68.0413 398.806 67.9534C398.613 67.8655 398.356 67.8215 398.035 67.8215C397.719 67.8215 397.424 67.8896 397.152 68.0259C396.879 68.1577 396.64 68.3555 396.433 68.6191C395.985 69.1992 395.761 69.9858 395.761 70.979C395.761 72.3984 396.24 73.3125 397.198 73.7212C397.519 73.8618 397.896 73.9321 398.332 73.9321ZM408.186 69.2585L408.081 72.7588C408.081 73.229 408.224 73.5674 408.509 73.7739C408.707 73.9189 408.96 73.9915 409.267 73.9915C409.25 74.2156 409.16 74.4177 408.997 74.5979C408.711 74.9143 408.479 75.0967 408.298 75.145C408.026 75.145 407.769 75.0527 407.527 74.8682C407.29 74.6836 407.105 74.4133 406.973 74.0574C406.472 74.532 405.859 74.8682 405.134 75.0659C404.932 75.123 404.695 75.1516 404.422 75.1516C404.154 75.1516 403.866 75.1011 403.559 75C403.256 74.8945 403.001 74.7473 402.794 74.5583C402.377 74.176 402.168 73.6553 402.168 72.9961C402.168 72.1963 402.616 71.5745 403.513 71.1306C404.348 70.7175 405.446 70.511 406.809 70.511H406.881C406.881 70.2341 406.877 69.9639 406.868 69.7002L406.861 69.4365C406.839 68.9048 406.648 68.5005 406.288 68.2236C406.002 68.0039 405.651 67.894 405.233 67.894C404.816 67.894 404.479 68.0061 404.225 68.2302C403.97 68.45 403.842 68.7686 403.842 69.186C403.842 69.3398 403.86 69.5046 403.895 69.6804H402.715L402.669 69.6672C402.656 69.5969 402.643 69.5222 402.629 69.4431C402.59 69.2542 402.557 69.0586 402.531 68.8564C402.509 68.6499 402.498 68.5137 402.498 68.4478C402.498 68.3511 402.515 68.2808 402.55 68.2368C403.688 67.4326 404.802 67.0305 405.892 67.0305C406.956 67.0305 407.657 67.4172 407.995 68.1907C408.123 68.4763 408.186 68.8323 408.186 69.2585ZM406.809 73.0159C406.839 72.4622 406.861 71.8689 406.875 71.2361C406.826 71.2185 406.679 71.2097 406.433 71.2097C406.191 71.2097 405.884 71.2493 405.51 71.3284C405.141 71.4031 404.818 71.5129 404.541 71.658C403.952 71.97 403.658 72.3875 403.658 72.9104C403.658 73.2751 403.776 73.5806 404.014 73.8267C404.255 74.0728 404.567 74.1958 404.95 74.1958C405.424 74.1958 405.912 73.9827 406.413 73.5564C406.562 73.429 406.694 73.2949 406.809 73.1543V73.0159ZM412.471 63.761C412.379 64.24 412.333 65.2024 412.333 66.6482V67.1228L412.346 73.4312C412.346 73.7915 412.372 74.0156 412.425 74.1035C412.508 74.2354 412.656 74.3013 412.866 74.3013C413.161 74.3013 413.418 74.2771 413.638 74.2288L413.532 75H409.716L409.828 74.3013C410.285 74.3013 410.577 74.2507 410.704 74.1497C410.836 74.0486 410.92 73.9453 410.955 73.8398C410.994 73.73 411.014 73.5959 411.014 73.4377V66.0022C411.014 65.6287 410.99 65.3958 410.942 65.3035C410.898 65.2112 410.856 65.1431 410.816 65.0991C410.781 65.0508 410.724 65.0134 410.645 64.9871C410.57 64.9563 410.482 64.9365 410.381 64.9277C410.241 64.9102 410.008 64.9014 409.683 64.9014L409.762 64.1499L412.471 63.761ZM428.74 74.3606C427.869 74.8572 426.632 75.1055 425.028 75.1055C423.222 75.1055 421.853 74.6484 420.922 73.7344C420.03 72.8599 419.583 71.6404 419.583 70.0759C419.583 68.6477 420.027 67.4414 420.915 66.457C421.539 65.7715 422.361 65.2925 423.38 65.02C423.903 64.8838 424.424 64.8157 424.943 64.8157C425.549 64.8157 426.127 64.8486 426.676 64.9146C427.538 65.0244 428.102 65.0793 428.37 65.0793L428.608 65.0728C428.608 65.9121 428.546 66.7976 428.423 67.7292H427.507C427.454 66.8767 427.261 66.2944 426.927 65.9824C426.597 65.6704 426.046 65.5144 425.272 65.5144C424.499 65.5144 423.855 65.6331 423.341 65.8704C422.831 66.1033 422.416 66.4175 422.095 66.813C421.484 67.5645 421.179 68.5752 421.179 69.8452C421.179 71.937 421.921 73.3081 423.407 73.9585C423.943 74.1914 424.538 74.3079 425.193 74.3079C426.248 74.3079 426.925 74.1145 427.223 73.7278V71.6975C427.223 71.0647 426.979 70.7241 426.492 70.6758C426.36 70.6626 426.197 70.656 426.004 70.656C425.811 70.656 425.628 70.6714 425.457 70.7021L425.523 69.8123H429.531L429.438 70.6428C429.232 70.6472 429.069 70.6692 428.95 70.7087C428.832 70.7439 428.742 70.8252 428.68 70.9526C428.588 71.1504 428.542 71.6558 428.542 72.4688C428.542 73.4092 428.608 74.0398 428.74 74.3606ZM433.163 74.1233C433.229 74.2024 433.314 74.2529 433.42 74.2749C433.53 74.2925 433.756 74.3013 434.099 74.3013C434.441 74.3013 434.709 74.2749 434.903 74.2222L434.857 75H430.612L430.704 74.3013C431.091 74.3013 431.339 74.2332 431.449 74.0969C431.646 73.8508 431.745 73.4158 431.745 72.7917V69.6145C431.745 69.0212 431.684 68.6543 431.561 68.5137C431.425 68.3555 431.126 68.2632 430.664 68.2368L430.757 67.3931L433.123 67.0371C433.079 67.3579 433.057 67.7249 433.057 68.1379C433.519 67.6985 434.059 67.3667 434.679 67.1426C434.898 67.0679 435.107 67.0305 435.305 67.0305C436.149 67.0305 436.571 67.4062 436.571 68.1577C436.571 68.6016 436.507 69.0784 436.379 69.5881C436.371 69.6233 436.364 69.6475 436.36 69.6606C436.355 69.6694 436.353 69.676 436.353 69.6804H435.252L435.292 69.3706L435.318 69.1069C435.327 69.0234 435.331 68.9355 435.331 68.8433C435.331 68.751 435.323 68.6587 435.305 68.5664C435.292 68.4741 435.263 68.3972 435.219 68.3357C435.14 68.217 435.006 68.1577 434.817 68.1577C434.628 68.1577 434.448 68.1863 434.277 68.2434C434.11 68.3005 433.947 68.3687 433.789 68.4478C433.468 68.6147 433.22 68.7861 433.044 68.9619L433.057 68.9553L433.064 73.3784C433.064 73.7959 433.097 74.0442 433.163 74.1233ZM437.625 71.0186C437.625 70.4253 437.735 69.8804 437.955 69.3838C438.175 68.8828 438.469 68.4565 438.838 68.105C439.598 67.3887 440.532 67.0305 441.64 67.0305C442.712 67.0305 443.562 67.3865 444.191 68.0984C444.793 68.7795 445.094 69.6672 445.094 70.7615C445.094 72.0051 444.703 73.0444 443.92 73.8794C443.151 74.6924 442.204 75.0989 441.079 75.0989C439.972 75.0989 439.108 74.7056 438.489 73.9189C437.913 73.1938 437.625 72.2271 437.625 71.0186ZM441.376 74.2617C441.71 74.2617 442.004 74.2024 442.259 74.0837C442.519 73.9651 442.743 73.7827 442.932 73.5366C443.345 73.0137 443.551 72.2578 443.551 71.269C443.551 70.2144 443.349 69.3772 442.945 68.7576C442.536 68.1379 441.98 67.8281 441.277 67.8281C440.657 67.8281 440.154 68.0698 439.768 68.5532C439.341 69.085 439.128 69.8474 439.128 70.8406C439.128 71.8733 439.328 72.6973 439.728 73.3125C440.137 73.9453 440.686 74.2617 441.376 74.2617ZM454.362 73.8003L454.415 73.7937H454.448L454.428 74.6111L452.49 75.1121C452.301 74.8176 452.176 74.4727 452.114 74.0771C451.639 74.4727 451.018 74.7803 450.249 75C449.985 75.0747 449.712 75.1121 449.431 75.1121C449.154 75.1121 448.877 75.0659 448.601 74.9736C448.328 74.8813 448.091 74.7407 447.889 74.5518C447.462 74.1519 447.249 73.5674 447.249 72.7983L447.302 69.074C447.302 68.6345 447.234 68.3511 447.098 68.2236C446.997 68.1313 446.788 68.0698 446.471 68.0391L446.57 67.3931L448.838 67.0239L448.706 68.25C448.614 69.0938 448.568 70.377 448.568 72.0996C448.568 72.8027 448.667 73.2949 448.864 73.5762C449.058 73.8618 449.4 74.0046 449.893 74.0046C450.336 74.0046 450.721 73.9409 451.046 73.8135C451.565 73.6025 451.892 73.4136 452.028 73.2466L452.015 73.2532V69.1399C452.015 68.6785 451.925 68.3818 451.745 68.25C451.604 68.1401 451.29 68.0808 450.802 68.072L450.901 67.3931L453.452 67.0239C453.439 67.2524 453.426 67.4502 453.413 67.6172L453.386 68.0588C453.377 68.2039 453.369 68.3357 453.36 68.4543C453.351 68.5686 453.344 68.6895 453.34 68.8169C453.331 69.0718 453.327 69.4167 453.327 69.8518V72.9895C453.327 73.4114 453.362 73.6685 453.432 73.7607C453.507 73.853 453.575 73.9036 453.637 73.9124C453.703 73.9211 453.773 73.9255 453.848 73.9255H453.907C454.043 73.9255 454.195 73.8838 454.362 73.8003ZM457.823 75.3757L457.836 76.6743C457.836 77.061 457.858 77.2939 457.902 77.373C457.946 77.4521 458 77.5005 458.066 77.5181C458.137 77.54 458.251 77.551 458.409 77.551C458.567 77.551 458.721 77.5444 458.871 77.5312C459.257 77.5049 459.473 77.4763 459.517 77.4456L459.398 78.3486H455.298L455.403 77.6169C455.812 77.6169 456.073 77.5554 456.188 77.4324C456.399 77.2126 456.504 76.793 456.504 76.1733V69.4102C456.504 68.8784 456.41 68.5356 456.221 68.3818C456.102 68.2852 455.847 68.2368 455.456 68.2368L455.562 67.3931L457.869 67.0239C457.86 67.1162 457.851 67.2129 457.842 67.314C457.833 67.415 457.825 67.5271 457.816 67.6501C457.812 67.7688 457.805 67.894 457.796 68.0259C458.345 67.5732 458.967 67.2656 459.662 67.103C459.881 67.0547 460.094 67.0305 460.301 67.0305C460.508 67.0305 460.729 67.0569 460.967 67.1096C461.204 67.1624 461.433 67.2502 461.652 67.3733C461.876 67.4919 462.085 67.6479 462.279 67.8413C462.472 68.0303 462.641 68.2632 462.786 68.54C463.098 69.1377 463.254 69.8804 463.254 70.7681C463.254 71.9634 462.909 72.9741 462.219 73.8003C461.499 74.666 460.576 75.0989 459.451 75.0989C458.809 75.0989 458.269 75.0374 457.829 74.9143C457.825 74.989 457.823 75.0659 457.823 75.145V75.3757ZM457.836 73.5959C458.016 73.8816 458.418 74.0859 459.042 74.209C459.218 74.2441 459.446 74.2617 459.728 74.2617C460.013 74.2617 460.301 74.1848 460.591 74.031C460.885 73.8772 461.129 73.6575 461.323 73.3718C461.696 72.8093 461.883 71.9963 461.883 70.9329C461.883 69.6101 461.483 68.751 460.683 68.3555C460.393 68.2148 460.099 68.1445 459.8 68.1445C459.501 68.1445 459.255 68.1709 459.062 68.2236C458.868 68.2764 458.686 68.3379 458.515 68.4082C458.154 68.5576 457.924 68.6895 457.823 68.8037L457.836 68.7971V73.5959Z" fill="white"/>
</svg>
